<svg width="120" height="129" viewBox="0 0 120 129" fill="none" xmlns="http://www.w3.org/2000/svg">
<path d="M47.5006 96C68.2077 96 85 79.2112 85 58.5C85 37.79 68.2077 21 47.5006 21C26.7885 21 10 37.79 10 58.5C10 79.2112 26.7885 96 47.5006 96Z" fill="#3C2C5B"/>
<path d="M55.8753 98.9155C74.8865 97.5844 89.2288 80.8757 87.9167 61.5903C86.6046 42.3036 70.1346 27.7534 51.1247 29.0845C32.1135 30.4156 17.7712 47.1243 19.0833 66.4097C20.3954 85.6964 36.8654 100.247 55.8753 98.9155Z" fill="#61CCFF"/>
<path fill-rule="evenodd" clip-rule="evenodd" d="M47.6691 69.0511C47.7807 69.1355 47.8031 69.2949 47.7191 69.407C45.374 72.539 41.5748 79.8751 39.6702 87.0051C38.7179 90.5702 38.2462 94.0592 38.6518 96.9339C39.0562 99.7999 40.3257 102.027 42.8402 103.146L42.7378 103.378L42.8402 103.146C45.3925 104.282 48.3664 104.312 51.3984 103.641C53.8252 103.104 56.2769 102.121 58.5566 100.914C59.2658 97.9361 60.9087 95.1449 62.6955 93.0655C64.1235 91.4036 65.6701 90.1638 66.951 89.6401C67.5887 89.3793 68.1979 89.2808 68.7022 89.4407C69.229 89.6076 69.5827 90.0362 69.7322 90.6883L69.7323 90.6888C69.8594 91.2478 69.6413 91.9367 69.2261 92.665C68.804 93.4055 68.1483 94.2381 67.3148 95.1075C65.6467 96.8475 63.2403 98.7618 60.4824 100.411C59.9981 100.701 59.5027 100.983 58.9981 101.254C58.6354 102.896 58.5727 104.583 58.9458 106.221L58.9459 106.221C59.2043 107.355 59.6569 108.053 60.2311 108.452C60.8068 108.852 61.5454 108.98 62.433 108.889C64.224 108.706 66.495 107.649 68.9102 106.42C69.3128 106.215 69.719 106.006 70.1269 105.796C72.1437 104.757 74.2011 103.696 76.0614 103.062C78.2815 102.304 80.3481 102.109 81.734 103.434L81.7342 103.435C82.8511 104.505 83.096 106.11 82.97 107.969C82.8651 109.517 82.4979 111.298 82.1085 113.187C82.0294 113.571 81.9494 113.959 81.8704 114.351C80.9284 119.024 80.1349 124.225 82.6279 128.62C82.6971 128.742 82.6548 128.897 82.5335 128.967C82.4121 129.036 82.2576 128.994 82.1885 128.872C79.5899 124.29 80.4361 118.906 81.3746 114.25C81.4549 113.851 81.5358 113.459 81.6154 113.072C82.0047 111.183 82.363 109.444 82.4653 107.935C82.5887 106.114 82.332 104.71 81.385 103.802C80.2276 102.695 78.4326 102.79 76.224 103.543C74.4025 104.164 72.3862 105.203 70.3689 106.243C69.9583 106.454 69.5477 106.666 69.1387 106.874C66.7421 108.093 64.3855 109.2 62.4843 109.395C61.5259 109.493 60.6523 109.363 59.9435 108.871C59.2333 108.377 58.7293 107.548 58.4527 106.334C58.0923 104.752 58.1189 103.135 58.4185 101.559C56.2132 102.694 53.8535 103.619 51.5071 104.138C48.4111 104.822 45.3188 104.805 42.6354 103.611C39.9142 102.4 38.5716 99.9868 38.151 97.0053C37.7315 94.0325 38.2218 90.4667 39.1816 86.8733C41.1015 79.686 44.9276 72.2897 47.3149 69.1014C47.3989 68.9892 47.5575 68.9667 47.6691 69.0511ZM59.1629 100.586C59.5215 100.387 59.8754 100.183 60.2237 99.9746C62.9486 98.3447 65.3181 96.4576 66.9505 94.7548C67.7673 93.9028 68.3929 93.1038 68.7872 92.4123C69.1883 91.7087 69.3217 91.1654 69.2392 90.8021C69.1202 90.2839 68.8687 90.0265 68.5501 89.9255C68.209 89.8174 67.7327 89.8693 67.1416 90.111C65.9648 90.5922 64.4804 91.7661 63.0784 93.3977C61.411 95.3383 59.8978 97.8805 59.1629 100.586Z" fill="black"/>
<path d="M83.2484 31.5457L65 25.0347L77.3494 41.1636L66.1895 54.6621L84.4633 48.414L95.4297 60L93.8251 44.1909L115 32.701L92.6725 32.136L90.8297 13L83.2484 31.5457Z" fill="#FFC930"/>
<path fill-rule="evenodd" clip-rule="evenodd" d="M95.8322 11.0026C95.9471 11.019 96.0358 11.1112 96.0471 11.2258L97.8876 29.9145L119.754 30.469C119.868 30.4719 119.966 30.5503 119.993 30.6603C120.02 30.7703 119.969 30.8844 119.869 30.9385L99.0374 42.2145L100.627 57.7246C100.638 57.8312 100.579 57.9329 100.481 57.9774C100.383 58.0219 100.267 57.9993 100.193 57.9213L89.426 46.5698L71.53 52.7061C71.4235 52.7427 71.3055 52.7045 71.241 52.6128C71.1765 52.5211 71.1813 52.398 71.2526 52.3114L82.1402 39.1028L70.0512 23.2768C69.9837 23.1885 69.9829 23.0667 70.049 22.9775C70.1152 22.8883 70.2326 22.8529 70.3376 22.8905L88.1833 29.2879L95.5626 11.1564C95.6061 11.0497 95.7174 10.9861 95.8322 11.0026ZM95.6454 12.2886L88.5597 29.6986C88.5089 29.8233 88.3679 29.8858 88.2404 29.8401L70.9671 23.648L82.6618 38.9577C82.7321 39.0497 82.7297 39.1776 82.656 39.2671L72.2055 51.9454L89.4155 46.0443C89.5092 46.0121 89.6133 46.0375 89.6813 46.1092L100.05 57.0415L98.5191 42.0998C98.5088 41.9997 98.5601 41.9032 98.6491 41.855L118.804 30.9452L97.6521 30.4088C97.5249 30.4056 97.4201 30.3088 97.4077 30.1832L95.6454 12.2886Z" fill="black"/>
<path d="M58.0508 91C58.0508 91 69.1141 65.9563 70.4634 61.5296C71.8573 56.9497 70.2852 55.4787 68.6011 56.0238C66.917 56.5689 65.1437 58.5526 63.2483 61.2782C61.3516 64.0049 59.3225 65.7386 58.4301 63.7535C57.5378 61.7698 56.5347 55.3368 57.5378 54.3449C58.5422 53.3518 63.8389 53.8433 65.6453 53.3518C67.9315 52.7307 69.4374 50.1583 64.5072 48.6425C60.449 47.3992 56.0217 46.9088 56.0217 46.9088C56.0217 46.9088 58.173 38.3614 56.6569 36.6278C55.2515 35.0248 53.3676 36.9974 53.3676 36.9974C53.3676 36.9974 51.4708 35.7554 50.3226 37.8599C48.7162 40.8144 35 81.8204 35 81.8204L58.0508 91Z" fill="#FFA0DC"/>
<path d="M52 36.0317C51.3502 35.8915 50.5271 36.1883 49.9131 37.4946C49.7384 37.8734 49.4182 38.7339 49 40C49.4764 39.9746 49.9475 39.7808 50.3075 39.4288C50.8633 38.9054 51.6056 37.0905 52 36.0317Z" fill="#3C2C5B"/>
<path d="M51 38.9602C51.5052 39.0512 52.3592 39.0104 53.1683 38.5785C53.898 38.1968 55.1354 36.0816 54.9879 36.0475C53.8403 35.7718 52.6631 36.7863 52.6631 36.7863C52.3592 37.1093 51 38.9602 51.0846 38.9915L51 38.9602Z" fill="#3C2C5B"/>
<path d="M63.5474 49.5405C63.9094 49.7773 65.4958 50.4497 66.8327 51C67.3538 50.0995 66.7526 48.9438 63.6715 48.1395C63.4905 48.0919 63.3651 48.0443 63.1285 48C62.9022 48.5178 62.9358 49.1243 63.5474 49.5405Z" fill="#3C2C5B"/>
<path d="M69.7879 56C68.8849 57.2046 67.6246 59.5815 68.1063 60.7249C68.3409 61.2724 68.9169 61.7378 69.6955 62C69.9284 61.575 70.115 61.2216 70.2395 60.9582C71.5176 58.1251 71.0607 56.4539 69.7879 56Z" fill="#3C2C5B"/>
<path d="M35.1078 81.7125L57.9973 91C58.0974 90.7467 55.4207 85.7192 47.9526 82.6604C40.7991 79.7462 35.0629 81.5244 35 81.6677L35.1078 81.7125Z" fill="#3C2C5B"/>
<path fill-rule="evenodd" clip-rule="evenodd" d="M52.9068 36.0517C53.0095 36.1375 53.0305 36.3004 52.9539 36.4154C52.6268 36.9063 52.1183 38.0424 51.532 39.5033C50.9501 40.9536 50.3025 42.6953 49.6972 44.3745C49.0921 46.0533 48.53 47.6676 48.1192 48.8624C47.9137 49.4598 47.7462 49.9521 47.63 50.2951C47.5719 50.4666 47.5266 50.6007 47.4959 50.692C47.4805 50.7376 47.4688 50.7725 47.4609 50.7959L47.4491 50.8312C47.4491 50.8313 47.449 50.8314 47.2319 50.7401C47.0149 50.6487 47.0149 50.6487 47.0149 50.6486L47.0269 50.6129C47.0348 50.5893 47.0466 50.5542 47.062 50.5085C47.0928 50.4169 47.1382 50.2825 47.1964 50.1106C47.3128 49.767 47.4807 49.2738 47.6864 48.6755C48.0978 47.4791 48.6609 45.862 49.2672 44.1798C49.8734 42.4981 50.5235 40.7493 51.1091 39.2902C51.6903 37.8418 52.219 36.6497 52.5823 36.1044C52.6589 35.9894 52.8042 35.9658 52.9068 36.0517ZM47.1505 50.9834C47.0306 50.9329 46.9698 50.7831 47.0149 50.6487L47.2319 50.7401L47.449 50.8314C47.404 50.9657 47.2704 51.0338 47.1505 50.9834Z" fill="#383838"/>
<path fill-rule="evenodd" clip-rule="evenodd" d="M54.8471 46.5134C54.3523 46.5721 53.6897 46.7466 52.9641 47.2105L52.9635 47.2109C52.479 47.5187 51.7695 48.1941 51.0828 48.9299C50.4004 49.661 49.762 50.4284 49.4213 50.9023C49.344 51.01 49.1973 51.032 49.0939 50.9515C48.9904 50.871 48.9692 50.7185 49.0466 50.6108C49.4032 50.1147 50.0562 49.331 50.7471 48.5907C51.4336 47.8552 52.1791 47.1389 52.7194 46.7956C53.5108 46.2896 54.2407 46.0954 54.794 46.0297C55.0704 45.9969 55.302 45.9962 55.4743 46.0043C55.5605 46.0084 55.6316 46.0147 55.6853 46.0201C55.7059 46.0222 55.7243 46.0242 55.7392 46.0258C55.7435 46.0263 55.7474 46.0267 55.7511 46.0271C55.7596 46.028 55.766 46.0287 55.7711 46.0292C55.7754 46.0296 55.7774 46.0298 55.7778 46.0298C55.7779 46.0298 55.7779 46.0298 55.7778 46.0298C55.9069 46.0366 56.0062 46.1509 55.9997 46.2852C55.9932 46.4194 55.8833 46.5228 55.7543 46.516C55.7383 46.5152 55.7156 46.5128 55.6863 46.5097C55.5469 46.4949 55.2593 46.4644 54.8471 46.5134Z" fill="#383838"/>
<path opacity="0.2" d="M51 49C53.5645 46.2733 55.945 46.5631 55.8054 46.5043C55.945 46.5631 56.7295 43.1006 57 40C57 40 56.302 42.3047 53.7363 44.6682C51.6918 46.5283 51.0642 48.2042 51 49Z" fill="#383838"/>
<path d="M26.7207 7.291L35 9.9944L26.9192 11.6051L27.6056 18L23.181 12.6978L17.9394 17.3106L20.8567 10.2805L13 9.52556L20.8439 7.66783L17.6615 1.5981L23.6702 5.92606L27.5787 0L26.7207 7.291Z" fill="#FFA0DC"/>
<path d="M100 95.3445L104.673 96.5616L108.108 92L107.013 97.6291L112 97.9267L106.851 100.519V106L104.52 101.28L100.314 103.101L102.959 99.1437L100 95.3445Z" fill="#FFA0DC"/>
<path d="M10.3685 96.4245L12.891 93L12.9446 97.4468L17 97.4101L14.0201 100.569L16.089 105.078L12.0348 102.557L9.90615 107L9.08858 102.144L4 101.891L7.91084 98.6624L5.4432 93.6382L10.3685 96.4245Z" fill="#FFC930"/>
<path d="M3 54C1.34277 54 0 55.3437 0 57.0006C0 58.6563 1.34277 60 3 60C4.65722 60 6 58.6563 6 57.0006C6 55.3437 4.65722 54 3 54Z" fill="#FFA0DC"/>
</svg>
