<svg width="136" height="40" viewBox="0 0 136 40" fill="none" xmlns="http://www.w3.org/2000/svg">
<g clip-path="url(#clip0_618_60760)">
<path d="M43 31.9463V10.0961C43 9.12253 43.7628 8.33398 44.7045 8.33398H53.7727C61.6818 8.33398 66.5909 12.1402 66.5909 20.4926C66.5909 30.0432 61.4432 33.7084 53.5682 33.7084H44.7045C43.7628 33.7084 43 32.9199 43 31.9463ZM51.0455 26.9067C51.0455 27.3913 51.429 27.7877 51.8977 27.7877H52.75C56.5 27.7877 58.5455 25.7437 58.5455 20.9507C58.5455 15.6644 56.875 14.2547 52.5795 14.2547H51.8977C51.429 14.2547 51.0455 14.6512 51.0455 15.1357V26.9067Z" fill="black"/>
<path d="M78.625 14.7129C84.9318 14.7129 88.8182 18.5543 88.8182 24.2988C88.8182 31.0653 84.3864 34.2371 78.6591 34.2371C72.9318 34.2371 68.5 30.9948 68.5 24.6865C68.5 18.3781 72.5909 14.7129 78.625 14.7129ZM75.5909 24.2988C75.5909 27.7878 76.8523 29.3032 78.6591 29.3032C80.5682 29.3032 81.7273 27.7878 81.7273 24.2988C81.7273 21.5851 80.5682 19.5411 78.7273 19.6468C76.3068 19.6468 75.5909 22.2195 75.5909 24.2988Z" fill="black"/>
<path d="M126.421 26.6256L129.348 15.8855C129.45 15.5066 129.787 15.2423 130.171 15.2423H135.148C135.732 15.2423 136.145 15.837 135.953 16.4097L130.614 32.4758C128.739 38.185 127.989 39.9824 121.682 39.9824C120.83 39.9824 119.982 39.9207 119.342 39.8811C118.895 39.8502 118.546 39.467 118.546 39V35.6344C118.546 35.1366 118.946 34.7357 119.428 34.7533C119.624 34.7621 119.82 34.7665 120.012 34.7665C122.227 34.7665 122.739 34.0969 122.023 32.0529L116.573 16.4229C116.372 15.8502 116.786 15.2423 117.374 15.2423H122.641C123.02 15.2423 123.357 15.5022 123.459 15.8811L126.421 26.6256Z" fill="black"/>
<path d="M117.928 34.713H121.764V39.9994H117.928C117.46 39.9994 117.076 39.6029 117.076 39.1183V35.5941C117.076 35.1095 117.46 34.713 117.928 34.713Z" fill="black"/>
<path d="M115.409 16.1222V18.5892C115.409 19.0738 115.026 19.4702 114.557 19.4702H112.443V31.946C112.443 32.9196 111.68 33.7081 110.739 33.7081H107.057C106.115 33.7081 105.352 32.9196 105.352 31.946V19.4702H103.852C103.384 19.4702 103 19.0738 103 18.5892V16.1222C103 15.6376 103.384 15.2412 103.852 15.2412H105.386C105.386 8.72133 107.841 7.66406 112.375 7.66406H114.557C115.026 7.66406 115.409 8.06054 115.409 8.54512V11.4086C115.409 11.8887 115.038 12.2764 114.574 12.2896C112.895 12.3337 112.294 12.6729 112.443 15.2456H114.557C115.026 15.2456 115.409 15.642 115.409 16.1266V16.1222Z" fill="black"/>
<path d="M114.556 12.2891H110.721V7.00272L114.556 7.00272C115.025 7.00272 115.408 7.3992 115.408 7.88378V11.408C115.408 11.8926 115.025 12.2891 114.556 12.2891Z" fill="black"/>
<path d="M105.386 15.2415C105.386 15.2415 105.007 6.88468 110.721 6.99921C116.436 7.11375 113.559 10.1798 113.559 10.1798L107.368 15.4574L105.386 15.2415Z" fill="black"/>
<path d="M102.761 16.1222V18.5892C102.761 19.0738 102.377 19.4702 101.908 19.4702H99.7947V31.946C99.7947 32.9196 99.032 33.7081 98.0902 33.7081H94.4084C93.4666 33.7081 92.7038 32.9196 92.7038 31.946V19.4702H91.2038C90.7351 19.4702 90.3516 19.0738 90.3516 18.5892V16.1222C90.3516 15.6376 90.7351 15.2412 91.2038 15.2412H92.7379C92.7379 8.72133 95.1925 7.66406 99.7266 7.66406H101.908C102.377 7.66406 102.761 8.06054 102.761 8.54512V11.4086C102.761 11.8887 102.39 12.2764 101.925 12.2896C100.246 12.3337 99.6456 12.6729 99.7947 15.2456H101.908C102.377 15.2456 102.761 15.642 102.761 16.1266V16.1222Z" fill="black"/>
<path d="M101.907 12.2891H98.0723V7.00272L101.907 7.00272C102.376 7.00272 102.76 7.3992 102.76 7.88378V11.408C102.76 11.8926 102.376 12.2891 101.907 12.2891Z" fill="black"/>
<path d="M92.7376 15.2415C92.7376 15.2415 92.3584 6.88468 98.0729 6.99921C103.787 7.11375 100.911 10.1798 100.911 10.1798L94.7192 15.4574L92.7376 15.2415Z" fill="black"/>
</g>
<path fill-rule="evenodd" clip-rule="evenodd" d="M17.4986 0C15.3021 0 13.5215 1.7806 13.5215 3.97707V13.5213H10.7386C4.80785 13.5213 0 18.3292 0 24.26C0 30.1908 4.80785 34.9986 10.7386 34.9986H16.1072C16.3595 34.9986 16.6077 34.9812 16.8508 34.9475C17.0616 34.982 17.278 35 17.4986 35C19.695 35 21.4756 33.2194 21.4756 31.0229V21.478H31.0227C33.2193 21.478 35 19.6973 35 17.5007C35 15.3041 33.2193 13.5234 31.0227 13.5234L21.4756 13.5234V7.95455L31.0227 7.95455C33.2193 7.95455 35 6.17386 35 3.97727C35 1.78069 33.2193 0 31.0227 0H17.5011H17.4998H17.4986ZM13.5215 27.0447V21.4765H10.7392C9.20156 21.4765 7.95508 22.723 7.95508 24.2606C7.95508 25.7982 9.20156 27.0447 10.7392 27.0447H13.5215Z" fill="white"/>
<g style="mix-blend-mode:multiply">
<rect x="13.5215" width="7.95415" height="35" rx="3.97707" fill="url(#paint0_linear_618_60760)"/>
</g>
<g style="mix-blend-mode:multiply">
<rect x="35" width="7.95455" height="21.4762" rx="3.97727" transform="rotate(90 35 0)" fill="#08E8C2"/>
</g>
<g style="mix-blend-mode:multiply">
<rect x="35" y="13.5234" width="7.95455" height="21.4762" rx="3.97727" transform="rotate(90 35 13.5234)" fill="#12D0DF"/>
</g>
<g style="mix-blend-mode:multiply">
<path fill-rule="evenodd" clip-rule="evenodd" d="M17.502 13.5214H10.7425C4.81176 13.5214 0.00390625 18.3292 0.00390625 24.26C0.00390625 30.1908 4.81176 34.9986 10.7425 34.9986H16.1111C16.3635 34.9986 16.6118 34.9812 16.8549 34.9475C17.0644 34.9816 17.2794 34.9993 17.4986 34.9993C19.695 34.9993 21.4756 33.2187 21.4756 31.0221C21.4756 28.8266 19.6969 27.0466 17.502 27.0448V27.0447H10.7411C9.20351 27.0447 7.95703 25.7982 7.95703 24.2606C7.95703 22.723 9.20351 21.4765 10.7411 21.4765H17.3946C17.4291 21.4774 17.4638 21.4779 17.4986 21.4779C19.695 21.4779 21.4756 19.6972 21.4756 17.5006C21.4756 15.3051 19.6969 13.5252 17.502 13.5233V13.5214Z" fill="#057FEF"/>
</g>
<defs>
<linearGradient id="paint0_linear_618_60760" x1="17.4986" y1="0" x2="17.4986" y2="35" gradientUnits="userSpaceOnUse">
<stop stop-color="#08E8C2"/>
<stop offset="1" stop-color="#057FEF"/>
</linearGradient>
<clipPath id="clip0_618_60760">
<rect width="93" height="33" fill="white" transform="translate(43 7)"/>
</clipPath>
</defs>
</svg>
