<svg width="36" height="36" viewBox="0 0 36 36" fill="none" xmlns="http://www.w3.org/2000/svg">
<path d="M17.97 16.5923C18.6289 16.5923 19.168 17.1314 19.168 17.7903C19.168 18.4492 18.6289 18.9883 17.97 18.9883C17.3111 18.9883 16.772 18.4492 16.772 17.7903C16.772 17.0715 17.3111 16.5923 17.97 16.5923Z" fill="white"/>
<path d="M17.9702 16.5922C17.3112 16.5922 16.7721 17.1313 16.7721 17.7902C16.7721 18.4491 17.3112 18.9882 17.9702 18.9882C18.6291 18.9882 19.1682 18.4491 19.1682 17.7902C19.1682 17.0714 18.6291 16.5922 17.9702 16.5922ZM22.3429 15.2744V18.8085C22.3429 20.0065 21.3845 21.0248 20.1266 21.0248H15.4543C14.2563 21.0248 13.238 20.0664 13.238 18.8085V15.2744C13.238 14.0764 14.1964 13.0581 15.4543 13.0581H20.1266C21.3845 13.0581 22.3429 14.0165 22.3429 15.2744Z" fill="white"/>
<path d="M15.4544 13.0583C14.2563 13.0583 13.238 14.0167 13.238 15.2747V18.8088C13.238 20.0068 14.1964 21.0251 15.4544 21.0251H20.1266C21.3246 21.0251 22.3429 20.0667 22.3429 18.8088V15.2747C22.3429 14.0766 21.3845 13.0583 20.1266 13.0583H15.4544ZM35.2214 0.778809V27.0151H0.778809V0.778809H35.2214Z" fill="#9BC9FF"/>
<path d="M35.2213 27.7338H20.9651C20.5458 27.7338 20.1864 27.3744 20.1864 26.9551C20.1864 26.5358 20.5458 26.1764 20.9651 26.1764H34.4426V1.4975H1.4975V26.2363H13.4775C13.8968 26.2363 14.2562 26.5957 14.2562 27.015C14.2562 27.4343 13.8968 27.7937 13.4775 27.7937H0.778702C0.359401 27.7937 0 27.4343 0 27.015V0.778702C0 0.359401 0.359401 0 0.778702 0H35.2213C35.6406 0 36 0.359401 36 0.778702V27.015C35.9401 27.3744 35.5807 27.7338 35.2213 27.7338Z" fill="#057FEF"/>
<path d="M20.965 35.94C20.5457 35.94 20.1863 35.5806 20.1863 35.1613V27.7337H14.1963V35.2212C14.1963 35.6405 13.8369 35.9999 13.4176 35.9999C12.9983 35.9999 12.6389 35.6405 12.6389 35.2212V26.955C12.6389 26.5357 12.9983 26.1763 13.4176 26.1763H20.9051C21.3244 26.1763 21.6838 26.5357 21.6838 26.955V35.2212C21.7437 35.5806 21.3843 35.94 20.965 35.94Z" fill="#057FEF"/>
<path d="M23.2414 35.94H11.2614C10.8421 35.94 10.4827 35.5806 10.4827 35.1613C10.4827 34.742 10.8421 34.3826 11.2614 34.3826H23.2414C23.6607 34.3826 24.0201 34.742 24.0201 35.1613C23.9602 35.5806 23.6008 35.94 23.2414 35.94Z" fill="#057FEF"/>
<path d="M14.8554 13.7172C14.4361 13.7172 14.0767 13.3578 14.0767 12.9385V10.4227C14.0767 9.46431 14.4361 8.5059 15.1549 7.847C15.8737 7.1282 16.7722 6.7688 17.7306 6.7688C19.7672 6.7688 21.3845 8.446 21.3845 10.4227C21.3845 10.842 21.0251 11.2014 20.6058 11.2014C20.1865 11.2014 19.8271 10.842 19.8271 10.4227C19.8271 9.22471 18.8687 8.2663 17.6707 8.2663C17.0717 8.2663 16.5326 8.50591 16.1133 8.92521C15.694 9.34451 15.4544 9.88361 15.4544 10.4826V12.9984C15.6341 13.3578 15.2747 13.7172 14.8554 13.7172Z" fill="#057FEF"/>
<path d="M20.1864 21.7439H15.5142C13.8969 21.7439 12.5791 20.4261 12.5791 18.8088V15.2747C12.5791 13.6574 13.8969 12.3396 15.5142 12.3396H20.1864C21.8037 12.3396 23.1215 13.6574 23.1215 15.2747V18.8088C23.1215 20.3662 21.8037 21.7439 20.1864 21.7439ZM15.4543 13.7772C14.6756 13.7772 14.0167 14.4361 14.0167 15.2148V18.7489C14.0167 19.5276 14.6756 20.1865 15.4543 20.1865H20.1265C20.9052 20.1865 21.5641 19.5276 21.5641 18.7489V15.2747C21.5641 14.496 20.9052 13.8371 20.1265 13.8371L15.4543 13.7772Z" fill="#057FEF"/>
<path d="M17.97 19.6471C16.8918 19.6471 16.0532 18.8085 16.0532 17.7303C16.0532 16.6521 16.8918 15.8135 17.97 15.8135C19.0482 15.8135 19.8868 16.6521 19.8868 17.7303C19.8868 18.8085 19.0482 19.6471 17.97 19.6471ZM17.97 17.311C17.7304 17.311 17.5507 17.4907 17.5507 17.7303C17.5507 17.9699 17.7304 18.1496 17.97 18.1496C18.2096 18.1496 18.3893 17.9699 18.3893 17.7303C18.3893 17.4907 18.2096 17.311 17.97 17.311Z" fill="#057FEF"/>
<path d="M17.9699 17.3112C17.5506 17.3112 17.1912 16.9518 17.1912 16.5325V15.0949C17.1912 14.6756 17.5506 14.3162 17.9699 14.3162C18.3892 14.3162 18.7486 14.6756 18.7486 15.0949V16.5325C18.7486 17.0117 18.3892 17.3112 17.9699 17.3112Z" fill="#057FEF"/>
</svg>
