<svg width="36" height="36" viewBox="0 0 36 36" fill="none" xmlns="http://www.w3.org/2000/svg">
<path d="M22.5151 26.9848C22.3345 27.1651 22.1539 27.3454 21.9733 27.4656C20.7091 27.6459 19.3847 27.706 18.0001 27.706C16.6154 27.706 15.3512 27.6459 14.0268 27.4656C13.8462 27.2853 13.6054 27.1651 13.4248 26.9848V22.4772C13.4248 20.0131 15.4716 17.9697 17.9399 17.9697C19.2041 17.9697 20.2877 18.4505 21.1305 19.2919C21.9733 20.1333 22.4549 21.2151 22.4549 22.4772V26.9848H22.5151Z" fill="#9BC9FF"/>
<path d="M18 36C15.6521 36 13.4247 34.7379 11.6187 32.394C10.4147 30.8915 9.45147 28.9683 8.78926 26.7446C8.30765 25.2421 7.94645 23.6795 7.76585 22.0568C7.52504 20.6745 7.46484 19.3523 7.46484 17.9699C7.46484 16.5876 7.52505 15.2654 7.70565 13.9432C7.94645 12.3205 8.24745 10.6978 8.72906 9.25543C9.45146 7.03172 10.4147 5.10851 11.5585 3.60601C13.3645 1.202 15.5919 0 17.9398 0C20.2876 0 22.515 1.2621 24.321 3.60601C25.525 5.10851 26.4883 7.03172 27.1505 9.25543C27.6321 10.7579 27.9933 12.3205 28.1739 13.9432C28.3545 15.2654 28.4147 16.5876 28.4147 17.9699C28.4147 19.3523 28.3545 20.6745 28.1739 21.9967C27.9331 23.6194 27.6321 25.2421 27.1505 26.6845C26.4281 28.9082 25.4648 30.8314 24.321 32.3339C22.5752 34.7379 20.3478 36 18 36ZM18 1.4424C16.1337 1.4424 14.3277 2.52421 12.8227 4.50751C11.7391 5.88982 10.8361 7.69282 10.2341 9.73623C9.81267 11.1185 9.45147 12.621 9.27086 14.1836C9.09026 15.4457 9.03006 16.7078 9.03006 18.03C9.03006 19.3523 9.09026 20.6144 9.27086 21.8765C9.45147 23.4391 9.81267 24.9416 10.2341 26.3239C10.8963 28.3673 11.7993 30.1703 12.8227 31.5526C14.3879 33.5359 16.1337 34.6177 18 34.6177C19.8662 34.6177 21.6722 33.5359 23.1772 31.5526C24.2608 30.1703 25.1638 28.3673 25.7658 26.3239C26.1873 24.9416 26.5485 23.4391 26.7291 21.8765C26.9097 20.6144 26.9699 19.3523 26.9699 18.03C26.9699 16.7078 26.9097 15.4457 26.7291 14.1836C26.5485 12.621 26.1873 11.1185 25.7658 9.73623C25.1036 7.69282 24.2006 5.88982 23.1772 4.50751C21.6722 2.52421 19.8662 1.4424 18 1.4424Z" fill="#057FEF"/>
<path d="M10.7155 32.7548C8.42792 32.7548 6.5617 32.0336 5.23728 30.7114C3.61187 29.0887 2.88946 26.6246 3.31086 23.6196C3.55167 21.6964 4.21387 19.653 5.29748 17.6096C6.01989 16.2273 6.8627 14.845 7.88611 13.5829C8.66872 12.5011 9.57173 11.4794 10.5349 10.5178C11.4982 9.55616 12.5216 8.65466 13.6052 7.87336C14.9296 6.85166 16.3142 6.01025 17.6386 5.28905C19.7456 4.20725 21.7323 3.54615 23.6587 3.30575C24.2005 3.24565 24.7423 3.18555 25.2239 3.18555C27.5115 3.18555 29.3777 3.90675 30.7022 5.22895C32.3276 6.85166 33.05 9.31576 32.6286 12.3208C32.3878 14.244 31.7256 16.2874 30.642 18.3308C29.9196 19.7131 29.0767 21.0954 28.0533 22.3575C27.2707 23.4393 26.3677 24.461 25.4045 25.4226C24.6219 26.2039 23.7791 26.9251 22.9965 27.5862C22.8159 27.7665 22.5751 27.8867 22.3945 28.067C21.0701 29.0887 19.6854 29.9301 18.361 30.6513C16.254 31.7331 14.2674 32.3942 12.341 32.6346C11.7992 32.6947 11.2574 32.7548 10.7155 32.7548ZM25.2841 4.68805C24.8627 4.68805 24.3811 4.74815 23.8995 4.80825C22.1537 5.04865 20.2874 5.64965 18.361 6.67136C17.0366 7.33246 15.7724 8.17386 14.5082 9.13546C13.4848 9.91676 12.5216 10.7582 11.6186 11.6597C10.7155 12.5612 9.81253 13.5228 9.09013 14.5445C8.12692 15.8066 7.28411 17.0687 6.6219 18.3909C5.65869 20.3141 4.99648 22.1772 4.75568 23.9201C4.45468 26.4443 4.93628 28.4276 6.26069 29.7498C7.28411 30.7715 8.84932 31.3725 10.7155 31.3725C11.1369 31.3725 11.6186 31.3124 12.1002 31.2523C13.846 31.0119 15.7122 30.4109 17.6386 29.3892C18.963 28.7281 20.2272 27.8867 21.4915 26.9251C21.6721 26.8049 21.8527 26.6246 22.0935 26.4443C22.8761 25.7832 23.6587 25.1221 24.4413 24.3408C25.3443 23.4393 26.2473 22.4777 26.9697 21.456C27.9329 20.1939 28.7757 18.9318 29.438 17.6096C30.4012 15.6864 31.0634 13.8233 31.3042 12.0804C31.6052 9.55616 31.1236 7.57286 29.7992 6.25066C28.6553 5.22895 27.1503 4.68805 25.2841 4.68805Z" fill="#057FEF"/>
<path d="M18 28.4879C16.6154 28.4879 15.291 28.4278 13.9666 28.2475C12.3411 28.0071 10.7157 27.7066 9.2709 27.2258C7.04348 26.5046 5.11706 25.543 3.61204 24.4011C1.20401 22.5981 0 20.3744 0 18.0304C0 15.6865 1.26421 13.4628 3.61204 11.6598C5.11706 10.4578 7.04348 9.49622 9.2709 8.83512C10.7759 8.35432 12.3411 7.99372 13.9666 7.81342C16.6154 7.45282 19.4448 7.45282 22.0334 7.81342C23.6589 8.05382 25.2843 8.35432 26.7291 8.83512C28.9565 9.55632 30.8829 10.5179 32.388 11.6598C34.796 13.4628 36 15.6865 36 18.0304C36 20.3744 34.7358 22.5981 32.388 24.4011C30.8829 25.6031 28.9565 26.5647 26.7291 27.2258C25.2241 27.7066 23.6589 28.0672 22.0334 28.2475C20.709 28.4278 19.3846 28.4879 18 28.4879ZM18 8.95532C16.6756 8.95532 15.4114 9.01542 14.1472 9.19573C12.5819 9.37603 11.0769 9.73663 9.69231 10.1573C7.64548 10.8184 5.83946 11.7199 4.45485 12.7416C2.46823 14.3042 1.38461 16.0471 1.38461 17.9102C1.38461 19.7734 2.46823 21.5764 4.45485 23.0789C5.83946 24.1607 7.64548 25.0622 9.69231 25.6632C11.0769 26.0839 12.5819 26.4445 14.1472 26.6248C16.6756 26.9253 19.3244 26.9253 21.8528 26.6248C23.4181 26.4445 24.9231 26.0839 26.3077 25.6632C28.3545 25.0021 30.1605 24.1006 31.5452 23.0789C33.5318 21.5163 34.6154 19.7734 34.6154 17.9102C34.6154 16.0471 33.5318 14.2441 31.5452 12.7416C30.1605 11.6598 28.3545 10.7583 26.3077 10.1573C24.9231 9.73663 23.4181 9.37603 21.8528 9.19573C20.5886 9.01542 19.3244 8.95532 18 8.95532Z" fill="#057FEF"/>
<path d="M25.2842 32.7548C24.8026 32.7548 24.2608 32.6947 23.719 32.6346C21.7926 32.3942 19.7458 31.7331 17.699 30.6513C16.3143 29.9301 14.9297 29.0887 13.6655 28.067C13.4849 27.8867 13.2441 27.7665 13.0635 27.5862C12.2207 26.9251 11.3779 26.1438 10.6555 25.4226C9.69226 24.461 8.78926 23.4393 8.00665 22.3575C6.98324 21.0353 6.14043 19.653 5.41802 18.3308C4.33441 16.2273 3.6722 14.244 3.4314 12.3208C3.07019 9.37586 3.7324 6.91176 5.35782 5.22895C6.68223 3.90675 8.60865 3.18555 10.8361 3.18555C11.3177 3.18555 11.8595 3.24565 12.4013 3.30575C14.3277 3.54615 16.3745 4.20725 18.4214 5.28905C19.806 6.01025 21.1906 6.85166 22.4548 7.87336C23.5384 8.65466 24.5618 9.55616 25.525 10.5178C26.4883 11.4794 27.3913 12.5011 28.1739 13.5829C29.1973 14.9051 30.0401 16.2874 30.7625 17.6096C31.8461 19.7131 32.5083 21.6964 32.7491 23.6196C33.1103 26.5645 32.4481 29.0286 30.8227 30.7114C29.4381 32.0336 27.5117 32.7548 25.2842 32.7548ZM10.7157 4.68805C8.84946 4.68805 7.34444 5.22895 6.26083 6.31076C4.93641 7.63296 4.45481 9.61626 4.75581 12.1405C4.99661 13.8834 5.59862 15.7465 6.62203 17.6697C7.28424 18.9919 8.12705 20.254 9.09026 21.5161C9.87287 22.5378 10.7157 23.4994 11.6187 24.4009C12.3411 25.1221 13.1237 25.8433 13.9665 26.5044C14.1471 26.6847 14.3277 26.8049 14.5685 26.9852C15.8327 27.9468 17.0969 28.7882 18.4214 29.4493C20.3478 30.4109 22.214 31.072 23.9598 31.3124C24.4414 31.3725 24.923 31.4326 25.3444 31.4326C27.2107 31.4326 28.7157 30.8917 29.7993 29.8099C31.1237 28.4877 31.6053 26.5044 31.3043 23.9802C31.0635 22.2373 30.4615 20.3742 29.4381 18.451C28.7759 17.1288 27.9331 15.8667 26.9699 14.6046C26.1873 13.5829 25.3444 12.6213 24.4414 11.7198C23.5384 10.8183 22.5752 9.91677 21.5518 9.19556C20.2876 8.23396 19.0234 7.39256 17.699 6.73146C15.7725 5.76985 13.9063 5.10875 12.1605 4.86835C11.6187 4.68805 11.1973 4.68805 10.7157 4.68805Z" fill="#057FEF"/>
<path d="M22.515 27.7661C22.0936 27.7661 21.7324 27.4055 21.7324 26.9848V22.4773C21.7324 21.4556 21.311 20.5541 20.6488 19.8329C19.9264 19.1117 18.9632 18.7511 17.9999 18.7511C15.9531 18.7511 14.2073 20.4339 14.2073 22.5374V27.0449C14.2073 27.4656 13.8461 27.8262 13.4247 27.8262C13.0033 27.8262 12.6421 27.4656 12.6421 27.0449V22.4773C12.6421 19.5925 14.9899 17.1885 17.9398 17.1885C19.3244 17.1885 20.6488 17.7294 21.6722 18.7511C22.6956 19.7728 23.2374 21.095 23.2374 22.4773V26.9848C23.2976 27.4055 22.9364 27.7661 22.515 27.7661Z" fill="#057FEF"/>
<path d="M18.0002 18.7513C15.9533 18.7513 14.2075 17.0685 14.2075 14.965C14.2075 12.8615 15.8931 11.1787 18.0002 11.1787C20.1072 11.1787 21.7928 12.8615 21.7928 14.965C21.7928 17.0685 20.047 18.7513 18.0002 18.7513ZM18.0002 12.7413C16.7359 12.7413 15.7125 13.763 15.7125 15.0251C15.7125 16.2872 16.7359 17.3089 18.0002 17.3089C19.2644 17.3089 20.2878 16.2872 20.2878 15.0251C20.2878 13.763 19.2644 12.7413 18.0002 12.7413Z" fill="#057FEF"/>
</svg>
