<svg width="30" height="36" viewBox="0 0 30 36" fill="none" xmlns="http://www.w3.org/2000/svg">
<path d="M15 0.838623C7.56 0.838623 1.5 6.82864 1.5 14.3162C1.5 20.7854 6 26.1165 12.06 27.4942C13.02 27.6739 13.98 27.7937 15 27.7937C16.02 27.7937 16.98 27.6739 17.94 27.4942C24 26.1165 28.5 20.7255 28.5 14.3162C28.5 6.82864 22.44 0.838623 15 0.838623Z" fill="#9BC9FF"/>
<path d="M30 28.5125H28.5V30.01H30V28.5125Z" fill="#057FEF"/>
<path d="M27 28.5125H25.5V30.01H27V28.5125Z" fill="#057FEF"/>
<path d="M24 28.5125H22.5V30.01H24V28.5125Z" fill="#057FEF"/>
<path d="M7.5 28.5125H6V30.01H7.5V28.5125Z" fill="#057FEF"/>
<path d="M4.5 28.5125H3V30.01H4.5V28.5125Z" fill="#057FEF"/>
<path d="M1.5 28.5125H0V30.01H1.5V28.5125Z" fill="#057FEF"/>
<path d="M15 24.02C14.58 24.02 14.22 23.6606 14.22 23.2413C14.22 22.822 14.58 22.4626 15 22.4626C19.56 22.4626 23.28 18.7488 23.28 14.1964C23.28 13.7771 23.64 13.4177 24.06 13.4177C24.48 13.4177 24.84 13.7771 24.84 14.1964C24.78 19.6473 20.4 24.02 15 24.02Z" fill="#057FEF"/>
<path d="M6 15.035C5.58 15.035 5.22 14.6756 5.22 14.2563C5.22 8.86527 9.6 4.49255 15 4.49255C15.42 4.49255 15.78 4.85196 15.78 5.27126C15.78 5.69056 15.42 6.04996 15 6.04996C10.44 6.04996 6.72 9.76377 6.72 14.3162C6.78 14.6756 6.42 15.035 6 15.035Z" fill="#057FEF"/>
<path d="M18.78 19.5274H11.28C10.86 19.5274 10.5 19.168 10.5 18.7487V16.5324C10.5 14.0765 12.54 12.0399 15 12.0399C16.2 12.0399 17.34 12.5191 18.18 13.3577C19.02 14.1963 19.5 15.3344 19.5 16.5324V18.8086C19.5 19.168 19.14 19.5274 18.78 19.5274ZM12 18.0299H18V16.5324C18 15.7537 17.7 14.975 17.1 14.4359C16.56 13.8968 15.78 13.5374 15 13.5374C13.32 13.5374 12 14.8552 12 16.5324V18.0299Z" fill="#057FEF"/>
<path d="M15 13.5374C13.32 13.5374 12 12.2196 12 10.5424C12 8.86517 13.32 7.54736 15 7.54736C16.68 7.54736 18 8.86517 18 10.5424C18 12.2196 16.68 13.5374 15 13.5374ZM15 9.04487C14.16 9.04487 13.5 9.70377 13.5 10.5424C13.5 11.381 14.16 12.0399 15 12.0399C15.84 12.0399 16.5 11.381 16.5 10.5424C16.5 9.70377 15.84 9.04487 15 9.04487Z" fill="#057FEF"/>
<path d="M15 28.5125C13.98 28.5125 12.9 28.3927 11.88 28.1531C8.76 27.4942 5.94 25.6972 3.9 23.2413C1.86 20.7255 0.720001 17.5507 0.720001 14.2562C0.720001 6.40932 7.14 0 15 0C22.86 0 29.28 6.40932 29.28 14.2562C29.28 17.4908 28.14 20.7255 26.1 23.2413C24.06 25.7571 21.24 27.4942 18.12 28.1531C17.1 28.3927 16.02 28.5125 15 28.5125ZM15 1.5574C7.98 1.5574 2.22 7.24792 2.22 14.3161C2.22 20.2463 6.42 25.4576 12.18 26.7155C13.98 27.1348 15.9 27.1348 17.7 26.7155C23.46 25.4576 27.66 20.1864 27.66 14.3161C27.78 7.24792 22.02 1.5574 15 1.5574Z" fill="#057FEF"/>
<path d="M18 31.5075H12C11.58 31.5075 11.22 31.1481 11.22 30.7288V27.7338C11.22 27.3145 11.58 26.9551 12 26.9551C12.42 26.9551 12.78 27.3145 12.78 27.7338V30.01H17.28V27.7338C17.28 27.3145 17.64 26.9551 18.06 26.9551C18.48 26.9551 18.84 27.3145 18.84 27.7338V30.7288C18.78 31.1481 18.42 31.5075 18 31.5075Z" fill="#057FEF"/>
<path d="M13.5 36C13.08 36 12.72 35.6406 12.72 35.2213V30.7288C12.72 30.3095 13.08 29.9501 13.5 29.9501C13.92 29.9501 14.28 30.3095 14.28 30.7288V35.2213C14.28 35.6406 13.92 36 13.5 36Z" fill="#057FEF"/>
<path d="M16.5 36C16.08 36 15.72 35.6406 15.72 35.2213V30.7288C15.72 30.3095 16.08 29.9501 16.5 29.9501C16.92 29.9501 17.28 30.3095 17.28 30.7288V35.2213C17.28 35.6406 16.92 36 16.5 36Z" fill="#057FEF"/>
<path d="M15 12.0399C15.8284 12.0399 16.5 11.3695 16.5 10.5424C16.5 9.71538 15.8284 9.04492 15 9.04492C14.1716 9.04492 13.5 9.71538 13.5 10.5424C13.5 11.3695 14.1716 12.0399 15 12.0399Z" fill="white"/>
<path d="M18 18.0299H12V16.5324C12 14.8552 13.32 13.5374 15 13.5374C16.68 13.5374 18 14.8552 18 16.5324V18.0299Z" fill="white"/>
</svg>
