<svg width="48" height="48" viewBox="0 0 48 48" fill="none" xmlns="http://www.w3.org/2000/svg">
<circle cx="24" cy="24" r="24" fill="#F8F9FD"/>
<path d="M34.56 24.25C34.56 23.47 34.49 22.72 34.36 22H24V26.26H29.92C29.66 27.63 28.88 28.79 27.71 29.57V32.34H31.28C33.36 30.42 34.56 27.6 34.56 24.25Z" fill="#4285F4"/>
<path d="M24 35.0001C26.97 35.0001 29.46 34.0201 31.28 32.3401L27.71 29.5701C26.73 30.2301 25.48 30.6301 24 30.6301C21.14 30.6301 18.71 28.7001 17.84 26.1001H14.18V28.9401C15.99 32.5301 19.7 35.0001 24 35.0001Z" fill="#34A853"/>
<path d="M17.84 26.0901C17.62 25.4301 17.49 24.7301 17.49 24.0001C17.49 23.2701 17.62 22.5701 17.84 21.9101V19.0701H14.18C13.43 20.5501 13 22.2201 13 24.0001C13 25.7801 13.43 27.4501 14.18 28.9301L17.03 26.7101L17.84 26.0901Z" fill="#FBBC05"/>
<path d="M24 17.38C25.62 17.38 27.06 17.94 28.21 19.02L31.36 15.87C29.45 14.09 26.97 13 24 13C19.7 13 15.99 15.47 14.18 19.07L17.84 21.91C18.71 19.31 21.14 17.38 24 17.38Z" fill="#EA4335"/>
</svg>
