<svg width="48" height="48" viewBox="0 0 48 48" fill="none" xmlns="http://www.w3.org/2000/svg">
<g clip-path="url(#clip0_566_40090)">
<path d="M24 48C37.2548 48 48 37.2548 48 24C48 10.7452 37.2548 0 24 0C10.7452 0 0 10.7452 0 24C0 37.2548 10.7452 48 24 48Z" fill="#FAE300"/>
<path d="M24 15.0625C17.472 15.0625 12.192 19.2577 12.1968 24.4177C12.1968 27.7777 14.448 30.7153 17.8128 32.3569C17.5632 33.2785 16.92 35.7169 16.7904 36.1969C16.632 36.8401 17.0256 36.8305 17.2704 36.6769C17.5152 36.5233 20.5056 34.4737 21.816 33.5809C22.5404 33.6899 23.2722 33.7429 24.0048 33.7393C30.5328 33.7393 35.8128 29.5441 35.808 24.3889C35.8032 19.2337 30.5136 15.0577 24 15.0625Z" fill="#391B1B"/>
</g>
<defs>
<clipPath id="clip0_566_40090">
<rect width="48" height="48" fill="white"/>
</clipPath>
</defs>
</svg>
