<?xml version="1.0" encoding="UTF-8"?>
<svg xmlns="http://www.w3.org/2000/svg" xmlns:xlink="http://www.w3.org/1999/xlink" viewBox="0 0 136 40">
<defs>
<style>.cls-1{fill:none;}.cls-2{fill:url(#linear-gradient);}.cls-3{clip-path:url(#clippath);}.cls-4{fill:#12d0df;}.cls-5{fill:#08e8c2;}.cls-6{mix-blend-mode:multiply;}.cls-7{fill:#057fef;}.cls-7,.cls-8{fill-rule:evenodd;}.cls-8{fill:#fff;}.cls-9{isolation:isolate;}</style>
<clipPath id="clippath">
<rect class="cls-1" x="43" y="7" width="93" height="33"/>
</clipPath>
<linearGradient id="linear-gradient" x1="17.5" y1="42" x2="17.5" y2="7" gradientTransform="translate(0 42) scale(1 -1)" gradientUnits="userSpaceOnUse">
<stop offset="0" stop-color="#08e8c2"/><stop offset="1" stop-color="#057fef"/>
</linearGradient>
</defs>
<g class="cls-9">
<g id="Layer_2">
<g id="Layer_1-2">
<g id="logo">
<g class="cls-3">
<g id="Doffy">
<path id="Vector" d="M43,31.95V10.1c0-.97,.76-1.76,1.7-1.76h9.07c7.91,0,12.82,3.81,12.82,12.16,0,9.55-5.15,13.22-13.02,13.22h-8.86c-.94,0-1.7-.79-1.7-1.76Zm8.05-5.04c0,.48,.38,.88,.85,.88h.85c3.75,0,5.8-2.04,5.8-6.84,0-5.29-1.67-6.7-5.97-6.7h-.68c-.47,0-.85,.4-.85,.88v11.77Z"/>
<path id="Vector_2" d="M78.62,14.71c6.31,0,10.19,3.84,10.19,9.59,0,6.77-4.43,9.94-10.16,9.94s-10.16-3.24-10.16-9.55,4.09-9.97,10.12-9.97Zm-3.03,9.59c0,3.49,1.26,5,3.07,5,1.91,0,3.07-1.52,3.07-5,0-2.71-1.16-4.76-3-4.65-2.42,0-3.14,2.57-3.14,4.65Z"/>
<g id="Group">
<path id="Vector_3" d="M126.42,26.63l2.93-10.74c.1-.38,.44-.64,.82-.64h4.98c.58,0,1,.59,.81,1.17l-5.34,16.07c-1.88,5.71-2.62,7.51-8.93,7.51-.85,0-1.7-.06-2.34-.1-.45-.03-.8-.41-.8-.88v-3.37c0-.5,.4-.9,.88-.88,.2,0,.39,.01,.58,.01,2.22,0,2.73-.67,2.01-2.71l-5.45-15.63c-.2-.57,.21-1.18,.8-1.18h5.27c.38,0,.72,.26,.82,.64l2.96,10.74Z"/>
<path id="Vector_4" d="M117.93,34.71h3.84v5.29h-3.84c-.47,0-.85-.4-.85-.88v-3.52c0-.48,.38-.88,.85-.88Z"/>
</g>
<g id="Group_2">
<path id="Vector_5" d="M115.41,16.12v2.47c0,.48-.38,.88-.85,.88h-2.11v12.48c0,.97-.76,1.76-1.7,1.76h-3.68c-.94,0-1.71-.79-1.71-1.76v-12.48h-1.5c-.47,0-.85-.4-.85-.88v-2.47c0-.48,.38-.88,.85-.88h1.53c0-6.52,2.46-7.58,6.99-7.58h2.18c.47,0,.85,.4,.85,.88v2.86c0,.48-.37,.87-.83,.88-1.68,.04-2.28,.38-2.13,2.96h2.11c.47,0,.85,.4,.85,.88h0Z"/>
<path id="Vector_6" d="M114.56,12.29h-3.83V7h3.83c.47,0,.85,.4,.85,.88v3.52c0,.48-.38,.88-.85,.88Z"/>
<path id="Vector_7" d="M105.39,15.24s-.38-8.36,5.34-8.24c5.71,.11,2.84,3.18,2.84,3.18l-6.19,5.28-1.98-.22Z"/>
</g>
<g id="Group_3">
<path id="Vector_8" d="M102.76,16.12v2.47c0,.48-.38,.88-.85,.88h-2.11v12.48c0,.97-.76,1.76-1.7,1.76h-3.68c-.94,0-1.7-.79-1.7-1.76v-12.48h-1.5c-.47,0-.85-.4-.85-.88v-2.47c0-.48,.38-.88,.85-.88h1.53c0-6.52,2.45-7.58,6.99-7.58h2.18c.47,0,.85,.4,.85,.88v2.86c0,.48-.37,.87-.83,.88-1.68,.04-2.28,.38-2.13,2.96h2.11c.47,0,.85,.4,.85,.88h0Z"/><path id="Vector_9" d="M101.91,12.29h-3.84V7h3.84c.47,0,.85,.4,.85,.88v3.52c0,.48-.38,.88-.85,.88Z"/>
<path id="Vector_10" d="M92.74,15.24s-.38-8.36,5.34-8.24c5.71,.11,2.84,3.18,2.84,3.18l-6.19,5.28-1.98-.22Z"/>
</g>
</g>
</g>
<g id="Symbol">
<g id="symbol">
<path id="bg" class="cls-8" d="M17.5,0c-2.2,0-3.98,1.78-3.98,3.98V13.52h-2.78C4.81,13.52,0,18.33,0,24.26s4.81,10.74,10.74,10.74h5.37c.25,0,.5-.02,.74-.05,.08,.01,.16,.02,.24,.03,.03,0,.06,0,.09,0,.1,0,.21,.01,.32,.01,2.2,0,3.98-1.78,3.98-3.98v-9.55h9.55c2.2,0,3.98-1.78,3.98-3.98s-1.78-3.98-3.98-3.98h-9.55V7.95h9.55c2.2,0,3.98-1.78,3.98-3.98s-1.78-3.98-3.98-3.98h-13.52Zm-3.98,27.04v-5.57h-2.78c-1.54,0-2.78,1.25-2.78,2.78s1.25,2.78,2.78,2.78h2.78Z"/>
<g id="Group_244">
<g id="Rectangle_185">
<rect class="cls-2" x="13.52" width="21.48" height="7.95" rx="3.98" ry="3.98"/>
</g>
<g id="Rectangle_186" class="cls-6">
<rect class="cls-5" x="13.52" y="0" width="21.48" height="7.95" rx="3.98" ry="3.98"/>
</g>
<g id="Rectangle_187" class="cls-6">
<rect class="cls-4" x="13.52" y="13.52" width="21.48" height="7.95" rx="3.98" ry="3.98"/>
</g>
<g id="Union" class="cls-6"><path class="cls-7" d="M17.5,13.52h-6.76C4.81,13.52,0,18.33,0,24.26s4.81,10.74,10.74,10.74h5.37c.25,0,.5-.02,.74-.05,.21,.03,.43,.05,.65,.05,2.2,0,3.98-1.78,3.98-3.98s-1.78-3.98-3.97-3.98h0s-6.76,0-6.76,0c-1.54,0-2.78-1.25-2.78-2.78s1.25-2.78,2.78-2.78h6.7s.04,0,.06,0c2.2,0,3.98-1.78,3.98-3.98s-1.78-3.98-3.97-3.98h0Z"/></g></g></g></g></g></g></g></g></svg>