<svg width="18" height="18" viewBox="0 0 18 18" fill="none" xmlns="http://www.w3.org/2000/svg">
<g clip-path="url(#clip0_615_46807)">
<path d="M9.22425 16.4988H9.14925C8.12064 16.4909 7.10394 16.278 6.15867 15.8723C5.21341 15.4666 4.35858 14.8764 3.64425 14.1363C2.31963 12.7197 1.56666 10.8628 1.53065 8.92373C1.49464 6.98468 2.17814 5.10103 3.44925 3.63628C4.26816 2.71854 5.29765 2.01335 6.44925 1.58128C6.58362 1.52958 6.73004 1.51764 6.87101 1.5469C7.01198 1.57616 7.14155 1.64538 7.24425 1.74628C7.33936 1.84328 7.40635 1.96428 7.43805 2.09637C7.46975 2.22847 7.46498 2.36669 7.42425 2.49628C7.01322 3.62199 6.93178 4.84157 7.1895 6.01193C7.44722 7.18228 8.0334 8.25486 8.87925 9.10378C9.73299 9.94704 10.8081 10.5312 11.9801 10.7887C13.1522 11.0462 14.3732 10.9665 15.5018 10.5588C15.6361 10.5115 15.7811 10.5034 15.9198 10.5355C16.0586 10.5676 16.1853 10.6386 16.2852 10.7401C16.3851 10.8415 16.4541 10.9694 16.484 11.1086C16.514 11.2478 16.5036 11.3927 16.4543 11.5263C16.0711 12.5491 15.4726 13.4775 14.6993 14.2488C13.9799 14.966 13.1259 15.534 12.1863 15.9201C11.2467 16.3063 10.2401 16.5029 9.22425 16.4988ZM5.59425 3.68878C5.21751 3.95301 4.8727 4.26006 4.56675 4.60378C3.53515 5.78589 2.97931 7.30898 3.00703 8.87767C3.03475 10.4464 3.64404 11.9489 4.71675 13.0938C5.29314 13.6924 5.9837 14.1694 6.7476 14.4966C7.5115 14.8238 8.33324 14.9946 9.16425 14.9988H9.22425C10.2189 14.9982 11.1991 14.7605 12.0834 14.3052C12.9678 13.85 13.7308 13.1904 14.3092 12.3813C13.1305 12.534 11.9324 12.4146 10.8071 12.0321C9.6817 11.6496 8.65897 11.0143 7.81742 10.1749C6.97587 9.33552 6.3379 8.31443 5.95251 7.19005C5.56712 6.06567 5.44456 4.86791 5.59425 3.68878Z" fill="#057FEF"/>
<path d="M3 5.5L6 3V5L7 8L8.5 10L12 11.5L15 12L12 15.5H7.5L4 13.5L2.5 10.5L3 5.5Z" fill="#057FEF"/>
</g>
<defs>
<clipPath id="clip0_615_46807">
<rect width="18" height="18" fill="white"/>
</clipPath>
</defs>
</svg>
