<svg width="40" height="40" viewBox="0 0 40 40" fill="none" xmlns="http://www.w3.org/2000/svg">
<g filter="url(#filter0_d_668_53311)">
<circle cx="20" cy="18" r="12" fill="white"/>
</g>
<path d="M20.2879 15.7121L16.0879 19.9121C16.0316 19.9684 16 20.0447 16 20.1243V21.7C16 21.8657 16.1343 22 16.3 22H17.8757C17.9553 22 18.0316 21.9684 18.0879 21.9121L22.2879 17.7121C22.405 17.595 22.405 17.405 22.2879 17.2879L20.7121 15.7121C20.595 15.595 20.405 15.595 20.2879 15.7121Z" fill="#999999"/>
<path d="M22.7879 16.7879L21.2121 15.2121C21.095 15.095 21.095 14.905 21.2121 14.7879L21.7879 14.2121C21.905 14.095 22.095 14.095 22.2121 14.2121L23.7879 15.7879C23.905 15.905 23.905 16.095 23.7879 16.2121L23.2121 16.7879C23.095 16.905 22.905 16.905 22.7879 16.7879Z" fill="#999999"/>
<defs>
<filter id="filter0_d_668_53311" x="0" y="0" width="40" height="40" filterUnits="userSpaceOnUse" color-interpolation-filters="sRGB">
<feFlood flood-opacity="0" result="BackgroundImageFix"/>
<feColorMatrix in="SourceAlpha" type="matrix" values="0 0 0 0 0 0 0 0 0 0 0 0 0 0 0 0 0 0 127 0" result="hardAlpha"/>
<feOffset dy="2"/>
<feGaussianBlur stdDeviation="4"/>
<feComposite in2="hardAlpha" operator="out"/>
<feColorMatrix type="matrix" values="0 0 0 0 0.858333 0 0 0 0 0.858333 0 0 0 0 0.858333 0 0 0 0.25 0"/>
<feBlend mode="normal" in2="BackgroundImageFix" result="effect1_dropShadow_668_53311"/>
<feBlend mode="normal" in="SourceGraphic" in2="effect1_dropShadow_668_53311" result="shape"/>
</filter>
</defs>
</svg>
