<svg width="24" height="24" viewBox="0 0 24 24" fill="none" xmlns="http://www.w3.org/2000/svg">
<mask id="path-1-inside-1_1471_62155" fill="white">
<path fill-rule="evenodd" clip-rule="evenodd" d="M5 3C3.34315 3 2 4.34315 2 6V16C2 17.6569 3.34315 19 5 19H9.6906L11.134 21.5C11.5189 22.1667 12.4811 22.1667 12.866 21.5L14.3094 19H19C20.6569 19 22 17.6569 22 16V6C22 4.34315 20.6569 3 19 3H5Z"/>
</mask>
<path fill-rule="evenodd" clip-rule="evenodd" d="M5 3C3.34315 3 2 4.34315 2 6V16C2 17.6569 3.34315 19 5 19H9.6906L11.134 21.5C11.5189 22.1667 12.4811 22.1667 12.866 21.5L14.3094 19H19C20.6569 19 22 17.6569 22 16V6C22 4.34315 20.6569 3 19 3H5Z" fill="white"/>
<path d="M9.6906 19L11.4227 18L10.8453 17H9.6906V19ZM11.134 21.5L12.866 20.5L12.866 20.5L11.134 21.5ZM12.866 21.5L14.5981 22.5L12.866 21.5ZM14.3094 19V17H13.1547L12.5774 18L14.3094 19ZM4 6C4 5.44772 4.44772 5 5 5V1C2.23858 1 0 3.23858 0 6H4ZM4 16V6H0V16H4ZM5 17C4.44772 17 4 16.5523 4 16H0C0 18.7614 2.23858 21 5 21V17ZM9.6906 17H5V21H9.6906V17ZM12.866 20.5L11.4227 18L7.95855 20L9.40192 22.5L12.866 20.5ZM11.134 20.5C11.5189 19.8333 12.4811 19.8333 12.866 20.5L9.40192 22.5C10.5566 24.5 13.4434 24.5 14.5981 22.5L11.134 20.5ZM12.5774 18L11.134 20.5L14.5981 22.5L16.0415 20L12.5774 18ZM19 17H14.3094V21H19V17ZM20 16C20 16.5523 19.5523 17 19 17V21C21.7614 21 24 18.7614 24 16H20ZM20 6V16H24V6H20ZM19 5C19.5523 5 20 5.44772 20 6H24C24 3.23858 21.7614 1 19 1V5ZM5 5H19V1H5V5Z" fill="#999999" mask="url(#path-1-inside-1_1471_62155)"/>
<path d="M12 12C12.5523 12 13 11.5523 13 11C13 10.4477 12.5523 10 12 10C11.4477 10 11 10.4477 11 11C11 11.5523 11.4477 12 12 12Z" fill="#999999"/>
<path d="M16 12C16.5523 12 17 11.5523 17 11C17 10.4477 16.5523 10 16 10C15.4477 10 15 10.4477 15 11C15 11.5523 15.4477 12 16 12Z" fill="#999999"/>
<path d="M8 12C8.55228 12 9 11.5523 9 11C9 10.4477 8.55228 10 8 10C7.44772 10 7 10.4477 7 11C7 11.5523 7.44772 12 8 12Z" fill="#999999"/>
</svg>
