<svg width="20" height="19" viewBox="0 0 20 19" fill="none" xmlns="http://www.w3.org/2000/svg">
<path fill-rule="evenodd" clip-rule="evenodd" d="M10 0C10.366 0 10.7027 0.199887 10.8779 0.521148L13.6447 5.59366L19.1644 6.51361C19.5339 6.57519 19.838 6.8381 19.9523 7.19482C20.0666 7.55154 19.972 7.94223 19.7071 8.20711L15.571 12.3432L16.4864 17.8356C16.5493 18.213 16.3914 18.5931 16.0797 18.8149C15.7679 19.0366 15.357 19.0611 15.0212 18.8779L10 16.1391L4.97888 18.8779C4.64303 19.0611 4.23211 19.0366 3.92038 18.8149C3.60864 18.5931 3.45074 18.213 3.51363 17.8356L4.42903 12.3432L0.29292 8.20711C0.0280463 7.94223 -0.0665847 7.55154 0.047731 7.19482C0.162047 6.8381 0.466137 6.57519 0.835627 6.51361L6.35531 5.59366L9.12213 0.521148C9.29736 0.199887 9.63408 0 10 0ZM10 3.08833L7.64475 7.40634L3.08118 8.16693L6.57102 11.6568L5.82403 16.1387L10 13.8609L14.176 16.1387L13.429 11.6568L16.9189 8.16693L12.3553 7.40634L10 3.08833Z" fill="#999999"/>
</svg>
