<svg width="588" height="70" viewBox="0 0 588 70" fill="none" xmlns="http://www.w3.org/2000/svg">
<line x1="28" y1="16.5" x2="560" y2="16.5" stroke="#DDDDDD"/>
<line x1="28" y1="16.5" x2="384" y2="16.5" stroke="#057FEF"/>
<path d="M543.875 53.2656H542.141V67.3594H543.875V60.2344H545.969V58.7812H543.875V53.2656ZM532.734 63.5L533.719 64.8438C538.414 62.5312 540.133 58.8828 540.141 54.7344H533.5V56.1719H538.375C538.031 59.3906 536.172 61.7812 532.734 63.5ZM558.406 53.2656H556.656V60.8438H558.406V53.2656ZM546.891 57.2031C546.891 59.1328 548.516 60.4922 550.703 60.4844C552.883 60.4922 554.508 59.1328 554.5 57.2031C554.508 55.2422 552.883 53.8828 550.703 53.8906C548.516 53.8828 546.891 55.2422 546.891 57.2031ZM548.594 57.2031C548.586 56.0703 549.469 55.3359 550.703 55.3438C551.914 55.3359 552.797 56.0703 552.797 57.2031C552.797 58.3359 551.914 59.0547 550.703 59.0625C549.469 59.0547 548.586 58.3359 548.594 57.2031ZM549.062 67.2188H558.406V61.5H556.672V62.9531H550.781V61.5H549.062V67.2188ZM550.781 65.8125V64.3125H556.672V65.8125H550.781ZM564.734 53.875C562.664 53.875 561.195 55.0234 561.203 56.7188C561.195 58.1484 562.273 59.2031 563.891 59.4766V60.6875C562.641 60.7266 561.453 60.7344 560.438 60.7344L560.625 62.125C563.016 62.1328 566.297 62.0703 569.234 61.5469L569.094 60.2812C568 60.4375 566.82 60.5391 565.641 60.6094V59.4688C567.211 59.1797 568.266 58.125 568.281 56.7188C568.266 55.0234 566.797 53.875 564.734 53.875ZM562.375 67.0938H572.156V65.6875H564.109V63.1094H562.375V67.0938ZM562.828 56.7188C562.812 55.7656 563.609 55.2031 564.734 55.2031C565.867 55.2031 566.633 55.7656 566.641 56.7188C566.633 57.6484 565.867 58.2266 564.734 58.2344C563.609 58.2266 562.812 57.6484 562.828 56.7188ZM569.922 64.0625H571.656V59.2812H573.562V57.8438H571.656V53.2812H569.922V64.0625ZM587.203 64.3125H583.938V61.9844H586V60.5781H577.562V58.7656H585.672V54.2344H575.797V55.6406H583.953V57.375H575.828V61.9844H577.719V64.3125H574.297V65.75H587.203V64.3125ZM579.406 64.3125V61.9844H582.234V64.3125H579.406Z" fill="#999999"/>
<path d="M368.641 53.2656H366.906V56.7812H364.5V58.2031H366.906V61.6562H368.641V53.2656ZM356.766 60.25L357.672 61.625C359.352 61.0312 360.531 59.8125 361.148 58.3125C361.773 59.6406 362.883 60.7188 364.453 61.25L365.328 59.875C363.141 59.1406 362 57.4062 362 55.6875V55.5938H364.922V54.1875H357.297V55.5938H360.234V55.7031C360.234 57.5703 359.039 59.4688 356.766 60.25ZM359.062 64.7031C359.047 66.3984 360.883 67.3828 363.859 67.3906C366.852 67.3828 368.68 66.3984 368.688 64.7031C368.68 63.0078 366.852 62.0156 363.859 62.0156C360.883 62.0156 359.047 63.0078 359.062 64.7031ZM360.781 64.7031C360.773 63.8203 361.898 63.3438 363.859 63.3438C365.836 63.3438 366.953 63.8203 366.953 64.7031C366.953 65.5781 365.836 66.0547 363.859 66.0469C361.898 66.0547 360.773 65.5781 360.781 64.7031ZM383.547 64.2656H377.922V61.5156H382.078V54.2031H380.344V56.5156H373.797V54.2031H372.062V61.5156H376.203V64.2656H370.641V65.6875H383.547V64.2656ZM373.797 60.1094V57.9062H380.344V60.1094H373.797ZM396.234 53.2656H394.484V60.8438H396.234V53.2656ZM384.719 57.2031C384.719 59.1328 386.344 60.4922 388.531 60.4844C390.711 60.4922 392.336 59.1328 392.328 57.2031C392.336 55.2422 390.711 53.8828 388.531 53.8906C386.344 53.8828 384.719 55.2422 384.719 57.2031ZM386.422 57.2031C386.414 56.0703 387.297 55.3359 388.531 55.3438C389.742 55.3359 390.625 56.0703 390.625 57.2031C390.625 58.3359 389.742 59.0547 388.531 59.0625C387.297 59.0547 386.414 58.3359 386.422 57.2031ZM386.891 67.2188H396.234V61.5H394.5V62.9531H388.609V61.5H386.891V67.2188ZM388.609 65.8125V64.3125H394.5V65.8125H388.609ZM405.047 54.1094H398.844V55.4844H403.312V57.0625H398.875V61.4844H399.906C402.68 61.4844 404.141 61.4453 405.828 61.1562L405.656 59.75C404.156 60.0312 402.867 60.0938 400.594 60.0938V58.3594H405.047V54.1094ZM400.469 64.0312H408.391V67.3906H410.125V62.6406H400.469V64.0312ZM405.891 59.6406H408.391V61.9688H410.125V53.2812H408.391V55.2812H405.891V56.6719H408.391V58.25H405.891V59.6406Z" fill="#666666"/>
<path d="M180.305 53.7969H178.586V59.5312H182.461V60.8281H176.914V62.2344H189.789V60.8281H184.211V59.5312H188.117V53.7969H186.398V55.3281H180.305V53.7969ZM178.508 67.1094H188.336V65.7031H180.242V63.1406H178.508V67.1094ZM180.305 58.1406V56.6719H186.398V58.1406H180.305ZM202.508 53.2812H200.758V63.4844H202.508V53.2812ZM190.992 57.7344C190.992 59.8203 192.656 61.2812 194.805 61.2812C196.953 61.2812 198.609 59.8203 198.602 57.7344C198.609 55.6797 196.953 54.2109 194.805 54.2031C192.656 54.2109 190.992 55.6797 190.992 57.7344ZM192.695 57.7344C192.688 56.5156 193.594 55.7188 194.805 55.7188C195.984 55.7188 196.898 56.5156 196.898 57.7344C196.898 58.9844 195.984 59.7656 194.805 59.7656C193.594 59.7656 192.688 58.9844 192.695 57.7344ZM193.164 67.1094H202.898V65.7031H194.914V62.4531H193.164V67.1094ZM220.133 53.2812H218.383V63.4844H220.133V53.2812ZM208.617 57.7344C208.617 59.8203 210.281 61.2812 212.43 61.2812C214.578 61.2812 216.234 59.8203 216.227 57.7344C216.234 55.6797 214.578 54.2109 212.43 54.2031C210.281 54.2109 208.617 55.6797 208.617 57.7344ZM210.32 57.7344C210.312 56.5156 211.219 55.7188 212.43 55.7188C213.609 55.7188 214.523 56.5156 214.523 57.7344C214.523 58.9844 213.609 59.7656 212.43 59.7656C211.219 59.7656 210.312 58.9844 210.32 57.7344ZM210.789 67.1094H220.523V65.7031H212.539V62.4531H210.789V67.1094ZM235.07 59.8438H222.195V61.25H235.07V59.8438ZM222.82 57.8438L223.414 59.2188C225.977 58.9531 227.852 57.9297 228.617 56.5C229.383 57.9297 231.281 58.9531 233.852 59.2188L234.461 57.8438C231.781 57.5859 230.094 56.5234 229.836 55.3594H233.914V53.9375H223.367V55.3594H227.406C227.141 56.5391 225.438 57.5859 222.82 57.8438ZM223.695 64.7812C223.695 66.4453 225.547 67.375 228.617 67.375C231.664 67.375 233.5 66.4453 233.508 64.7812C233.5 63.1406 231.664 62.1875 228.617 62.1875C225.547 62.1875 223.695 63.1406 223.695 64.7812ZM225.461 64.7812C225.453 63.9609 226.562 63.5469 228.617 63.5469C230.641 63.5469 231.758 63.9609 231.773 64.7812C231.758 65.6016 230.641 66.0078 228.617 66.0156C226.562 66.0078 225.453 65.6016 225.461 64.7812Z" fill="#666666"/>
<path d="M13.875 55.2344H11.9531V53.2656H10.2188V61.6094H11.9531V59.7188H13.875V58.2656H11.9531V56.6406H13.875V55.2344ZM0.96875 57.4688C0.960938 59.4844 2.60156 60.8828 4.78125 60.8906C6.95312 60.8828 8.57812 59.4844 8.59375 57.4688C8.57812 55.4844 6.95312 54.0625 4.78125 54.0781C2.60156 54.0625 0.960938 55.4844 0.96875 57.4688ZM2.54688 63.625H10.2188V67.3906H11.9531V62.2188H2.54688V63.625ZM2.67188 57.4688C2.66406 56.2891 3.5625 55.5547 4.78125 55.5469C5.98438 55.5547 6.88281 56.2891 6.89062 57.4688C6.88281 58.6719 5.98438 59.4141 4.78125 59.4062C3.5625 59.4141 2.66406 58.6719 2.67188 57.4688ZM22.5312 54.3125H15.3281V55.75H20.8203C20.8047 56.6172 20.75 57.7031 20.4688 59.1562L22.1875 59.3125C22.5156 57.5234 22.5156 56.1172 22.5312 55.1562V54.3125ZM14.4844 60.4375L14.6406 61.8281C17.1172 61.8203 20.4531 61.7656 23.3906 61.2344L23.2969 59.9844C21.9297 60.1797 20.4297 60.2891 18.9688 60.3516V57.5312H17.25V60.4062C16.2578 60.4219 15.3203 60.4297 14.4844 60.4375ZM16.5938 67.1094H26.3594V65.7031H18.3438V62.9062H16.5938V67.1094ZM24.125 63.8438H25.9062V59.125H27.7344V57.6719H25.9062V53.2656H24.125V63.8438ZM41.3594 60.0312H35.7656V58.6875H39.875V57.3125H31.7812V55.2656H39.7969V53.9062H30.0469V58.6875H34.0625V60.0312H28.4688V61.4219H41.3594V60.0312ZM29.9688 64.8125C29.9688 66.4531 31.8203 67.3828 34.8906 67.3906C37.9375 67.3828 39.7734 66.4531 39.7812 64.8125C39.7734 63.1562 37.9375 62.2266 34.8906 62.2344C31.8203 62.2266 29.9688 63.1562 29.9688 64.8125ZM31.7344 64.8125C31.7266 64 32.8359 63.5625 34.8906 63.5625C36.9141 63.5625 38.0312 64 38.0469 64.8125C38.0312 65.6328 36.9141 66.0547 34.8906 66.0469C32.8359 66.0547 31.7266 65.6328 31.7344 64.8125ZM46.875 54.25C44.6562 54.2422 42.9922 55.6562 43 57.6562C42.9922 59.6641 44.6562 61.0703 46.875 61.0781C49.1172 61.0703 50.75 59.6641 50.7656 57.6562C50.75 55.6562 49.1172 54.2422 46.875 54.25ZM42.3594 63.0312L42.5781 64.4531C45.0703 64.4531 48.4609 64.4297 51.625 63.8281L51.4844 62.5625C48.4297 63 44.9062 63.0312 42.3594 63.0312ZM44.7188 57.6562C44.7109 56.4844 45.6406 55.75 46.875 55.75C48.1328 55.75 49.0547 56.4844 49.0625 57.6562C49.0547 58.8359 48.125 59.5625 46.875 59.5625C45.6406 59.5625 44.7109 58.8359 44.7188 57.6562ZM52.3281 67.4062H54.0625V53.2656H52.3281V67.4062Z" fill="#666666"/>
<circle cx="560" cy="18" r="17.5" fill="#F4F4F4" stroke="#DDDDDD"/>
<path d="M556.07 21.8906H561.555V24H563.492V21.8906H564.977V20.2188H563.492V12.6875H560.961L556.07 20.2656V21.8906ZM558.148 20.2188V20.1406L561.461 15H561.586V20.2188H558.148Z" fill="#999999"/>
<circle cx="384" cy="18" r="17.5" fill="white" stroke="#057FEF"/>
<path d="M384.492 24.1562C386.938 24.1562 388.727 22.7734 388.711 20.8594C388.727 19.4375 387.82 18.4141 386.227 18.2031V18.1094C387.461 17.8516 388.305 16.9375 388.289 15.6719C388.305 13.9375 386.82 12.5312 384.523 12.5312C382.312 12.5312 380.586 13.8359 380.539 15.7344H382.492C382.531 14.7812 383.445 14.1875 384.508 14.1875C385.609 14.1875 386.328 14.8281 386.32 15.7812C386.328 16.7656 385.492 17.4375 384.289 17.4375H383.273V19H384.289C385.758 19.0078 386.633 19.7344 386.633 20.75C386.633 21.7578 385.734 22.4453 384.492 22.4375C383.312 22.4453 382.406 21.8438 382.352 20.9375H380.305C380.352 22.8438 382.078 24.1562 384.492 24.1562Z" fill="#057FEF"/>
<circle cx="207" cy="18" r="18" fill="#057FEF"/>
<path d="M203.117 24H210.977V22.2969H205.945V22.2188L207.961 20.2188C210.188 18.1172 210.797 17.0859 210.805 15.8125C210.797 13.9141 209.242 12.5312 206.93 12.5312C204.672 12.5312 203.062 13.9219 203.07 16.0625H205.008C205 14.9141 205.75 14.1875 206.914 14.1875C208.016 14.1875 208.852 14.8516 208.852 15.9062C208.852 16.8594 208.258 17.5312 207.117 18.6719L203.117 22.5312V24Z" fill="white"/>
<circle cx="28" cy="18" r="18" fill="#057FEF"/>
<path d="M29.8594 12.6875H27.9062L25.1094 14.5V16.3594L27.75 14.6719H27.8125V24H29.8594V12.6875Z" fill="white"/>
</svg>
