<svg width="18" height="18" viewBox="0 0 18 18" fill="none" xmlns="http://www.w3.org/2000/svg">
<g clip-path="url(#clip0_731_48763)">
<path d="M9 4.5C9.19891 4.5 9.38968 4.42098 9.53033 4.28033C9.67098 4.13968 9.75 3.94891 9.75 3.75V2.25C9.75 2.05109 9.67098 1.86032 9.53033 1.71967C9.38968 1.57902 9.19891 1.5 9 1.5C8.80109 1.5 8.61032 1.57902 8.46967 1.71967C8.32902 1.86032 8.25 2.05109 8.25 2.25V3.75C8.25 3.94891 8.32902 4.13968 8.46967 4.28033C8.61032 4.42098 8.80109 4.5 9 4.5Z" fill="#057FEF"/>
<path d="M15.75 8.25H14.25C14.0511 8.25 13.8603 8.32902 13.7197 8.46967C13.579 8.61032 13.5 8.80109 13.5 9C13.5 9.19891 13.579 9.38968 13.7197 9.53033C13.8603 9.67098 14.0511 9.75 14.25 9.75H15.75C15.9489 9.75 16.1397 9.67098 16.2803 9.53033C16.421 9.38968 16.5 9.19891 16.5 9C16.5 8.80109 16.421 8.61032 16.2803 8.46967C16.1397 8.32902 15.9489 8.25 15.75 8.25Z" fill="#057FEF"/>
<path d="M4.5 9C4.5 8.80109 4.42098 8.61032 4.28033 8.46967C4.13968 8.32902 3.94891 8.25 3.75 8.25H2.25C2.05109 8.25 1.86032 8.32902 1.71967 8.46967C1.57902 8.61032 1.5 8.80109 1.5 9C1.5 9.19891 1.57902 9.38968 1.71967 9.53033C1.86032 9.67098 2.05109 9.75 2.25 9.75H3.75C3.94891 9.75 4.13968 9.67098 4.28033 9.53033C4.42098 9.38968 4.5 9.19891 4.5 9Z" fill="#057FEF"/>
<path d="M4.66371 3.74941C4.51751 3.61117 4.32238 3.53666 4.12124 3.54229C3.92011 3.54792 3.72945 3.63321 3.59121 3.77941C3.45296 3.92561 3.37846 4.12074 3.38409 4.32187C3.38971 4.52301 3.47501 4.71367 3.62121 4.85191L4.70121 5.89441C4.77368 5.96439 4.85952 6.01906 4.95358 6.05514C5.04765 6.09122 5.14802 6.10798 5.24871 6.10441C5.34974 6.10403 5.44965 6.08323 5.54244 6.04328C5.63523 6.00333 5.719 5.94504 5.78871 5.87191C5.9284 5.73139 6.0068 5.5413 6.0068 5.34316C6.0068 5.14502 5.9284 4.95493 5.78871 4.81441L4.66371 3.74941Z" fill="#057FEF"/>
<path d="M12.7512 6.10408C12.9443 6.10331 13.1296 6.02809 13.2687 5.89408L14.3487 4.85158C14.4804 4.71392 14.5548 4.53127 14.5568 4.34073C14.5588 4.15019 14.4881 3.96605 14.3592 3.82571C14.2304 3.68536 14.0529 3.59934 13.8629 3.5851C13.6728 3.57087 13.4845 3.6295 13.3362 3.74908L12.2562 4.81408C12.1165 4.9546 12.0381 5.14469 12.0381 5.34283C12.0381 5.54097 12.1165 5.73106 12.2562 5.87158C12.386 6.00862 12.5628 6.09164 12.7512 6.10408Z" fill="#057FEF"/>
<path d="M9 13.5C8.80109 13.5 8.61032 13.579 8.46967 13.7197C8.32902 13.8603 8.25 14.0511 8.25 14.25V15.75C8.25 15.9489 8.32902 16.1397 8.46967 16.2803C8.61032 16.421 8.80109 16.5 9 16.5C9.19891 16.5 9.38968 16.421 9.53033 16.2803C9.67098 16.1397 9.75 15.9489 9.75 15.75V14.25C9.75 14.0511 9.67098 13.8603 9.53033 13.7197C9.38968 13.579 9.19891 13.5 9 13.5Z" fill="#057FEF"/>
<path d="M13.2982 12.1051C13.1549 11.9668 12.9627 11.8911 12.7636 11.8946C12.5646 11.8982 12.3751 11.9806 12.2369 12.1238C12.0987 12.267 12.023 12.4593 12.0265 12.6583C12.03 12.8573 12.1124 13.0468 12.2557 13.1851L13.3357 14.2501C13.4747 14.3841 13.66 14.4593 13.8532 14.4601C13.9536 14.4607 14.0532 14.441 14.146 14.4024C14.2388 14.3637 14.3228 14.3068 14.3932 14.2351C14.4634 14.1653 14.5192 14.0824 14.5573 13.991C14.5954 13.8996 14.615 13.8016 14.615 13.7026C14.615 13.6036 14.5954 13.5055 14.5573 13.4141C14.5192 13.3227 14.4634 13.2398 14.3932 13.1701L13.2982 12.1051Z" fill="#057FEF"/>
<path d="M4.70322 12.106L3.62322 13.1485C3.55292 13.2182 3.49712 13.3012 3.45905 13.3926C3.42097 13.484 3.40137 13.582 3.40137 13.681C3.40137 13.78 3.42097 13.878 3.45905 13.9694C3.49712 14.0608 3.55292 14.1438 3.62322 14.2135C3.69356 14.2853 3.77761 14.3422 3.87037 14.3808C3.96314 14.4195 4.06272 14.4391 4.16322 14.4385C4.3481 14.4401 4.52705 14.3733 4.66572 14.251L5.74572 13.2085C5.88893 13.0703 5.97137 12.8808 5.97488 12.6818C5.9784 12.4827 5.90271 12.2905 5.76447 12.1473C5.62622 12.004 5.43675 11.9216 5.23772 11.9181C5.0387 11.9146 4.84643 11.9903 4.70322 12.1285V12.106Z" fill="#057FEF"/>
<circle cx="9" cy="9" r="3" fill="#057FEF"/>
</g>
<defs>
<clipPath id="clip0_731_48763">
<rect width="18" height="18" fill="white"/>
</clipPath>
</defs>
</svg>
