<svg width="10" height="10" viewBox="0 0 10 10" fill="none" xmlns="http://www.w3.org/2000/svg">
<path d="M0.0475 8.73954L4.6715 1.14238C4.738 1.03326 4.8635 0.965576 5 0.965576C5.136 0.965576 5.262 1.03326 5.328 1.14238L9.952 8.73954C9.984 8.79249 10 8.85051 10 8.90852C10 9.08579 9.8455 9.25339 9.624 9.25339H0.376C0.156 9.25339 0 9.08763 0 8.90852C0 8.85051 0.0155 8.79249 0.0475 8.73954ZM1.015 8.56274H8.9845L4.9995 2.01583L1.015 8.56274ZM5.001 5.5713C4.794 5.5713 4.626 5.726 4.626 5.91662V7.52814C4.626 7.71876 4.794 7.87347 5.001 7.87347C5.208 7.87347 5.376 7.71876 5.376 7.52814V5.91662C5.376 5.726 5.208 5.5713 5.001 5.5713ZM5 4.19C5.276 4.19 5.5 4.39627 5.5 4.65043C5.5 4.90459 5.276 5.11086 5 5.11086C4.724 5.11086 4.5 4.90459 4.5 4.65043C4.5 4.39627 4.724 4.19 5 4.19Z" fill="#F4440C"/>
</svg>
