<svg width="1560" height="480" viewBox="0 0 1560 480" fill="none" xmlns="http://www.w3.org/2000/svg">
<rect width="1560" height="480" rx="16" fill="url(#paint0_linear_566_42686)"/>
<circle opacity="0.3" cx="749" cy="450" r="6" fill="white"/>
<circle opacity="0.3" cx="773" cy="450" r="6" fill="white"/>
<circle opacity="0.3" cx="797" cy="450" r="6" fill="white"/>
<rect x="695" y="444" width="36" height="12" rx="6" fill="white"/>
<path fill-rule="evenodd" clip-rule="evenodd" d="M828.707 444.293C829.098 444.683 829.098 445.317 828.707 445.707L824.414 450L828.707 454.293C829.098 454.683 829.098 455.317 828.707 455.707C828.317 456.098 827.683 456.098 827.293 455.707L822.293 450.707C821.902 450.317 821.902 449.683 822.293 449.293L827.293 444.293C827.683 443.902 828.317 443.902 828.707 444.293Z" fill="white"/>
<path fill-rule="evenodd" clip-rule="evenodd" d="M859.293 444.293C858.902 444.683 858.902 445.317 859.293 445.707L863.586 450L859.293 454.293C858.902 454.683 858.902 455.317 859.293 455.707C859.683 456.098 860.317 456.098 860.707 455.707L865.707 450.707C866.098 450.317 866.098 449.683 865.707 449.293L860.707 444.293C860.317 443.902 859.683 443.902 859.293 444.293Z" fill="white"/>
<rect x="841.5" y="444.5" width="1.00117" height="11" rx="0.500586" fill="#222222" stroke="white"/>
<rect x="845.502" y="444.5" width="1.00117" height="11" rx="0.500586" fill="#222222" stroke="white"/>
<path d="M102.07 295H118.184L131.074 251.445H131.66L144.551 295H160.566L181.074 224.297H162.715L151.777 271.27H151.289L138.887 224.297H123.75L111.445 271.172H110.859L100.02 224.297H81.6602L102.07 295ZM206.758 295.977C220.479 295.977 229.561 289.336 231.562 278.984H216.23C214.912 282.109 211.543 284.062 207.051 284.062C200.361 284.062 196.26 279.619 196.211 272.832V272.539H231.758V268.34C231.758 250.762 221.064 241.289 206.172 241.289C190.254 241.289 180 252.275 180 268.73C180 285.625 190.156 295.977 206.758 295.977ZM196.211 262.871C196.455 257.402 200.752 253.203 206.562 253.203C212.227 253.203 216.328 257.207 216.426 262.871H196.211ZM256.758 224.297H240.254V295H256.758V224.297ZM291.914 295.977C306.66 295.977 315.889 287.432 316.328 274.492H300.996C300.264 280.107 296.846 283.232 292.109 283.184C286.006 283.232 282.002 278.057 282.051 268.438C282.002 258.965 286.055 253.838 292.109 253.789C297.041 253.838 300.264 257.207 300.996 262.578H316.328C315.938 249.688 306.416 241.289 291.914 241.289C275.312 241.289 265.254 252.373 265.254 268.633C265.254 284.844 275.215 295.977 291.914 295.977ZM349.434 295.977C366.035 295.977 376.094 284.99 376.094 268.633C376.094 252.275 366.035 241.289 349.434 241.289C332.881 241.289 322.773 252.275 322.773 268.633C322.773 284.99 332.881 295.977 349.434 295.977ZM339.57 268.535C339.521 259.697 343.037 253.545 349.531 253.496C355.83 253.545 359.346 259.697 359.297 268.535C359.346 277.422 355.83 283.525 349.531 283.574C343.037 283.525 339.521 277.422 339.57 268.535ZM384.59 295H401.094V263.555C401.045 258.135 404.268 254.668 408.809 254.668C413.252 254.668 416.23 257.793 416.23 262.773V295H432.051V263.164C432.051 258.037 434.932 254.668 439.668 254.668C444.111 254.668 447.236 257.549 447.188 262.969V295H463.691V259.258C463.691 248.027 456.758 241.289 446.797 241.289C438.984 241.289 432.832 245.342 430.781 251.641H430.195C428.779 245.293 423.164 241.289 415.84 241.289C408.564 241.289 403.047 245.195 400.801 251.641H400.215V241.973H384.59V295ZM498.75 295.977C512.471 295.977 521.553 289.336 523.555 278.984H508.223C506.904 282.109 503.535 284.062 499.043 284.062C492.354 284.062 488.252 279.619 488.203 272.832V272.539H523.75V268.34C523.75 250.762 513.057 241.289 498.164 241.289C482.246 241.289 471.992 252.275 471.992 268.73C471.992 285.625 482.148 295.977 498.75 295.977ZM488.203 262.871C488.447 257.402 492.744 253.203 498.555 253.203C504.219 253.203 508.32 257.207 508.418 262.871H488.203ZM584.199 241.973H574.531V229.277H558.125V241.973H550.996V254.082H558.125V280.254C558.027 290.947 565.01 295.732 576.68 295.781C580.537 295.732 583.271 295.439 584.883 295.195V282.598C583.027 282.744 580.391 282.891 579.023 282.793C576.24 282.744 574.58 281.719 574.531 278.398V254.082H584.199V241.973ZM616.719 295.977C633.32 295.977 643.379 284.99 643.379 268.633C643.379 252.275 633.32 241.289 616.719 241.289C600.166 241.289 590.059 252.275 590.059 268.633C590.059 284.99 600.166 295.977 616.719 295.977ZM606.855 268.535C606.807 259.697 610.322 253.545 616.816 253.496C623.115 253.545 626.631 259.697 626.582 268.535C626.631 277.422 623.115 283.525 616.816 283.574C610.322 283.525 606.807 277.422 606.855 268.535ZM700.215 295C721.797 295 735.078 281.719 735.078 259.648C735.078 237.529 721.797 224.297 700.215 224.297H674.336V295H700.215ZM690.938 280.742V238.457H699.434C711.738 238.506 718.379 244.268 718.379 259.648C718.379 274.98 711.738 280.791 699.629 280.742H690.938ZM769.453 295.977C786.055 295.977 796.113 284.99 796.113 268.633C796.113 252.275 786.055 241.289 769.453 241.289C752.9 241.289 742.793 252.275 742.793 268.633C742.793 284.99 752.9 295.977 769.453 295.977ZM759.59 268.535C759.541 259.697 763.057 253.545 769.551 253.496C775.85 253.545 779.365 259.697 779.316 268.535C779.365 277.422 775.85 283.525 769.551 283.574C763.057 283.525 759.541 277.422 759.59 268.535ZM834.395 241.973H824.336V239.434C824.287 235.381 826.729 233.818 830.879 233.77C831.611 233.818 833.125 233.867 835.371 234.062V221.855C832.539 221.318 829.658 220.977 825.898 220.977C814.863 220.977 807.832 227.031 807.832 239.043V241.973H800.605V254.082H807.832V295H824.336V254.082H834.395V241.973ZM872.188 241.973H862.129V239.434C862.08 235.381 864.521 233.818 868.672 233.77C869.404 233.818 870.918 233.867 873.164 234.062V221.855C870.332 221.318 867.451 220.977 863.691 220.977C852.656 220.977 845.625 227.031 845.625 239.043V241.973H838.398V254.082H845.625V295H862.129V254.082H872.188V241.973ZM889.766 314.922C902.217 314.873 908.174 308.867 911.152 300.176L931.27 241.973H913.887L903.828 280.059H903.242L893.184 241.973H875.996L894.844 296.855L894.258 298.516C892.842 302.031 890.693 302.324 888.008 302.324C886.006 302.324 883.711 302.275 881.562 302.129V314.629C883.711 314.824 886.641 314.873 889.766 314.922ZM1012.71 273.516V259.551L963.008 238.457V253.887L995.527 266.191V266.875L963.008 279.18V294.609L1012.71 273.516ZM1067.7 295H1020.72V307.109H1067.7V295ZM1075.8 273.516L1125.51 294.609V279.18L1092.89 266.875V266.191L1125.51 253.887V238.457L1075.8 259.551V273.516Z" fill="white"/>
<path d="M107.393 132.717V128.811L84.4434 117.678V123L101.191 130.642V130.886L84.4434 138.527V143.801L107.393 132.717ZM127.607 148H132.979V132.57H150.557V148H155.928V112.648H150.557V127.98H132.979V112.648H127.607V148ZM174.141 148.537C179.976 148.537 184.053 145.656 185.225 141.359H179.951C179.072 142.971 177.144 144.24 174.189 144.24C169.844 144.24 166.865 141.384 166.719 136.33H185.566V134.475C185.566 124.88 179.829 121.145 173.799 121.145C166.401 121.145 161.519 126.76 161.543 134.914C161.519 143.142 166.328 148.537 174.141 148.537ZM166.743 132.424C166.963 128.688 169.673 125.417 173.848 125.441C177.827 125.417 180.439 128.396 180.439 132.424H166.743ZM195.967 112.648H190.742V148H195.967V112.648ZM207.539 112.648H202.314V148H207.539V112.648ZM225.117 148.537C232.588 148.537 237.471 143.068 237.471 134.865C237.471 126.613 232.588 121.145 225.117 121.145C217.598 121.145 212.69 126.613 212.715 134.865C212.69 143.068 217.598 148.537 225.117 148.537ZM217.939 134.865C217.939 129.787 220.259 125.466 225.117 125.441C229.902 125.466 232.197 129.787 232.197 134.865C232.197 139.919 229.902 144.191 225.117 144.191C220.259 144.191 217.939 139.919 217.939 134.865ZM248.896 144.631H243.428L240.84 158.107H244.99L248.896 144.631ZM273.311 148H278.682L284.004 128.908H284.395L289.766 148H295.088L302.852 121.486H297.48L292.354 140.822H292.061L286.934 121.486H281.562L276.387 140.92H276.094L270.918 121.486H265.547L273.311 148ZM317.549 148.537C325.02 148.537 329.902 143.068 329.902 134.865C329.902 126.613 325.02 121.145 317.549 121.145C310.029 121.145 305.122 126.613 305.146 134.865C305.122 143.068 310.029 148.537 317.549 148.537ZM310.371 134.865C310.371 129.787 312.69 125.466 317.549 125.441C322.334 125.466 324.629 129.787 324.629 134.865C324.629 139.919 322.334 144.191 317.549 144.191C312.69 144.191 310.371 139.919 310.371 134.865ZM335.029 148H340.254V131.838C340.254 128.371 342.939 125.856 346.553 125.881C347.627 125.856 348.848 126.076 349.287 126.174V121.193C348.75 121.145 347.725 121.071 347.09 121.096C343.989 121.071 341.328 122.854 340.352 125.686H340.059V121.486H335.029V148ZM358.418 112.648H353.193V148H358.418V112.648ZM374.678 148.537C379.512 148.513 381.416 145.583 382.393 143.85H382.783V148H387.861V112.648H382.637V125.783H382.393C381.44 124.123 379.658 121.145 374.727 121.145C368.354 121.145 363.594 126.174 363.594 134.816C363.594 143.361 368.281 148.513 374.678 148.537ZM368.916 134.719C368.892 129.494 371.235 125.563 375.85 125.588C380.342 125.563 382.783 129.201 382.783 134.719C382.783 140.285 380.293 144.069 375.85 144.094C371.284 144.069 368.892 140.041 368.916 134.719ZM401.143 112.648H395.43L395.869 137.795H400.703L401.143 112.648ZM394.844 144.875C394.819 146.779 396.406 148.317 398.311 148.342C400.19 148.317 401.753 146.779 401.777 144.875C401.753 142.971 400.19 141.408 398.311 141.408C396.406 141.408 394.819 142.971 394.844 144.875ZM439.473 148H417.012V152.395H439.473V148Z" fill="white"/>
<defs>
<linearGradient id="paint0_linear_566_42686" x1="4.35333e-08" y1="348.371" x2="1560" y2="342.814" gradientUnits="userSpaceOnUse">
<stop stop-color="#057FEF"/>
<stop offset="1" stop-color="#08E8C2"/>
</linearGradient>
</defs>
</svg>
