<svg width="1560" height="480" viewBox="0 0 1560 480" fill="none" xmlns="http://www.w3.org/2000/svg">
<rect width="1560" height="480" rx="16" fill="url(#paint0_linear_786_129283)"/>
<path d="M102.07 295L81.6602 224.297H100.02L110.859 271.172H111.445L123.75 224.297H138.887L151.289 271.27H151.777L162.715 224.297H181.074L160.566 295H144.551L131.66 251.445H131.074L118.184 295H102.07ZM206.758 295.977C190.156 295.977 180 285.625 180 268.73C180 252.275 190.254 241.289 206.172 241.289C221.064 241.289 231.758 250.762 231.758 268.34V272.539H196.211V272.832C196.26 279.619 200.361 284.062 207.051 284.062C211.543 284.062 214.912 282.109 216.23 278.984H231.562C229.561 289.336 220.479 295.977 206.758 295.977ZM196.211 262.871H216.426C216.328 257.207 212.227 253.203 206.562 253.203C200.752 253.203 196.455 257.402 196.211 262.871ZM256.758 224.297V295H240.254V224.297H256.758ZM291.914 295.977C275.215 295.977 265.254 284.844 265.254 268.633C265.254 252.373 275.312 241.289 291.914 241.289C306.416 241.289 315.938 249.688 316.328 262.578H300.996C300.264 257.207 297.041 253.838 292.109 253.789C286.055 253.838 282.002 258.965 282.051 268.438C282.002 278.057 286.006 283.232 292.109 283.184C296.846 283.232 300.264 280.107 300.996 274.492H316.328C315.889 287.432 306.66 295.977 291.914 295.977ZM349.434 295.977C332.881 295.977 322.773 284.99 322.773 268.633C322.773 252.275 332.881 241.289 349.434 241.289C366.035 241.289 376.094 252.275 376.094 268.633C376.094 284.99 366.035 295.977 349.434 295.977ZM339.57 268.535C339.521 277.422 343.037 283.525 349.531 283.574C355.83 283.525 359.346 277.422 359.297 268.535C359.346 259.697 355.83 253.545 349.531 253.496C343.037 253.545 339.521 259.697 339.57 268.535ZM384.59 295V241.973H400.215V251.641H400.801C403.047 245.195 408.564 241.289 415.84 241.289C423.164 241.289 428.779 245.293 430.195 251.641H430.781C432.832 245.342 438.984 241.289 446.797 241.289C456.758 241.289 463.691 248.027 463.691 259.258V295H447.188V262.969C447.236 257.549 444.111 254.668 439.668 254.668C434.932 254.668 432.051 258.037 432.051 263.164V295H416.23V262.773C416.23 257.793 413.252 254.668 408.809 254.668C404.268 254.668 401.045 258.135 401.094 263.555V295H384.59ZM498.75 295.977C482.148 295.977 471.992 285.625 471.992 268.73C471.992 252.275 482.246 241.289 498.164 241.289C513.057 241.289 523.75 250.762 523.75 268.34V272.539H488.203V272.832C488.252 279.619 492.354 284.062 499.043 284.062C503.535 284.062 506.904 282.109 508.223 278.984H523.555C521.553 289.336 512.471 295.977 498.75 295.977ZM488.203 262.871H508.418C508.32 257.207 504.219 253.203 498.555 253.203C492.744 253.203 488.447 257.402 488.203 262.871ZM584.199 241.973V254.082H574.531V278.398C574.58 281.719 576.24 282.744 579.023 282.793C580.391 282.891 583.027 282.744 584.883 282.598V295.195C583.271 295.439 580.537 295.732 576.68 295.781C565.01 295.732 558.027 290.947 558.125 280.254V254.082H550.996V241.973H558.125V229.277H574.531V241.973H584.199ZM616.719 295.977C600.166 295.977 590.059 284.99 590.059 268.633C590.059 252.275 600.166 241.289 616.719 241.289C633.32 241.289 643.379 252.275 643.379 268.633C643.379 284.99 633.32 295.977 616.719 295.977ZM606.855 268.535C606.807 277.422 610.322 283.525 616.816 283.574C623.115 283.525 626.631 277.422 626.582 268.535C626.631 259.697 623.115 253.545 616.816 253.496C610.322 253.545 606.807 259.697 606.855 268.535ZM700.215 295H674.336V224.297H700.215C721.797 224.297 735.078 237.529 735.078 259.648C735.078 281.719 721.797 295 700.215 295ZM690.938 280.742H699.629C711.738 280.791 718.379 274.98 718.379 259.648C718.379 244.268 711.738 238.506 699.434 238.457H690.938V280.742ZM769.453 295.977C752.9 295.977 742.793 284.99 742.793 268.633C742.793 252.275 752.9 241.289 769.453 241.289C786.055 241.289 796.113 252.275 796.113 268.633C796.113 284.99 786.055 295.977 769.453 295.977ZM759.59 268.535C759.541 277.422 763.057 283.525 769.551 283.574C775.85 283.525 779.365 277.422 779.316 268.535C779.365 259.697 775.85 253.545 769.551 253.496C763.057 253.545 759.541 259.697 759.59 268.535ZM834.395 241.973V254.082H824.336V295H807.832V254.082H800.605V241.973H807.832V239.043C807.832 227.031 814.863 220.977 825.898 220.977C829.658 220.977 832.539 221.318 835.371 221.855V234.062C833.125 233.867 831.611 233.818 830.879 233.77C826.729 233.818 824.287 235.381 824.336 239.434V241.973H834.395ZM872.188 241.973V254.082H862.129V295H845.625V254.082H838.398V241.973H845.625V239.043C845.625 227.031 852.656 220.977 863.691 220.977C867.451 220.977 870.332 221.318 873.164 221.855V234.062C870.918 233.867 869.404 233.818 868.672 233.77C864.521 233.818 862.08 235.381 862.129 239.434V241.973H872.188ZM889.766 314.922C886.641 314.873 883.711 314.824 881.562 314.629V302.129C883.711 302.275 886.006 302.324 888.008 302.324C890.693 302.324 892.842 302.031 894.258 298.516L894.844 296.855L875.996 241.973H893.184L903.242 280.059H903.828L913.887 241.973H931.27L911.152 300.176C908.174 308.867 902.217 314.873 889.766 314.922ZM1012.71 273.516L963.008 294.609V279.18L995.527 266.875V266.191L963.008 253.887V238.457L1012.71 259.551V273.516ZM1067.7 295V307.109H1020.72V295H1067.7ZM1075.8 273.516V259.551L1125.51 238.457V253.887L1092.89 266.191V266.875L1125.51 279.18V294.609L1075.8 273.516Z" fill="white"/>
<path d="M107.393 132.717L84.4434 143.801V138.527L101.191 130.886V130.642L84.4434 123V117.678L107.393 128.811V132.717ZM127.607 148V112.648H132.979V127.98H150.557V112.648H155.928V148H150.557V132.57H132.979V148H127.607ZM174.141 148.537C166.328 148.537 161.519 143.142 161.543 134.914C161.519 126.76 166.401 121.145 173.799 121.145C179.829 121.145 185.566 124.88 185.566 134.475V136.33H166.719C166.865 141.384 169.844 144.24 174.189 144.24C177.144 144.24 179.072 142.971 179.951 141.359H185.225C184.053 145.656 179.976 148.537 174.141 148.537ZM166.743 132.424H180.439C180.439 128.396 177.827 125.417 173.848 125.441C169.673 125.417 166.963 128.688 166.743 132.424ZM195.967 112.648V148H190.742V112.648H195.967ZM207.539 112.648V148H202.314V112.648H207.539ZM225.117 148.537C217.598 148.537 212.69 143.068 212.715 134.865C212.69 126.613 217.598 121.145 225.117 121.145C232.588 121.145 237.471 126.613 237.471 134.865C237.471 143.068 232.588 148.537 225.117 148.537ZM217.939 134.865C217.939 139.919 220.259 144.191 225.117 144.191C229.902 144.191 232.197 139.919 232.197 134.865C232.197 129.787 229.902 125.466 225.117 125.441C220.259 125.466 217.939 129.787 217.939 134.865ZM248.896 144.631L244.99 158.107H240.84L243.428 144.631H248.896ZM273.311 148L265.547 121.486H270.918L276.094 140.92H276.387L281.562 121.486H286.934L292.061 140.822H292.354L297.48 121.486H302.852L295.088 148H289.766L284.395 128.908H284.004L278.682 148H273.311ZM317.549 148.537C310.029 148.537 305.122 143.068 305.146 134.865C305.122 126.613 310.029 121.145 317.549 121.145C325.02 121.145 329.902 126.613 329.902 134.865C329.902 143.068 325.02 148.537 317.549 148.537ZM310.371 134.865C310.371 139.919 312.69 144.191 317.549 144.191C322.334 144.191 324.629 139.919 324.629 134.865C324.629 129.787 322.334 125.466 317.549 125.441C312.69 125.466 310.371 129.787 310.371 134.865ZM335.029 148V121.486H340.059V125.686H340.352C341.328 122.854 343.989 121.071 347.09 121.096C347.725 121.071 348.75 121.145 349.287 121.193V126.174C348.848 126.076 347.627 125.856 346.553 125.881C342.939 125.856 340.254 128.371 340.254 131.838V148H335.029ZM358.418 112.648V148H353.193V112.648H358.418ZM374.678 148.537C368.281 148.513 363.594 143.361 363.594 134.816C363.594 126.174 368.354 121.145 374.727 121.145C379.658 121.145 381.44 124.123 382.393 125.783H382.637V112.648H387.861V148H382.783V143.85H382.393C381.416 145.583 379.512 148.513 374.678 148.537ZM368.916 134.719C368.892 140.041 371.284 144.069 375.85 144.094C380.293 144.069 382.783 140.285 382.783 134.719C382.783 129.201 380.342 125.563 375.85 125.588C371.235 125.563 368.892 129.494 368.916 134.719ZM401.143 112.648L400.703 137.795H395.869L395.43 112.648H401.143ZM394.844 144.875C394.819 142.971 396.406 141.408 398.311 141.408C400.19 141.408 401.753 142.971 401.777 144.875C401.753 146.779 400.19 148.317 398.311 148.342C396.406 148.317 394.819 146.779 394.844 144.875ZM439.473 148V152.395H417.012V148H439.473Z" fill="white"/>
<defs>
<linearGradient id="paint0_linear_786_129283" x1="4.35333e-08" y1="348.371" x2="1560" y2="342.814" gradientUnits="userSpaceOnUse">
<stop stop-color="#057FEF"/>
<stop offset="1" stop-color="#08E8C2"/>
</linearGradient>
</defs>
</svg>
