<svg width="138" height="42" viewBox="0 0 138 42" fill="none" xmlns="http://www.w3.org/2000/svg">
<g style="mix-blend-mode:luminosity">
<g clip-path="url(#clip0_608_27017)">
<path d="M41.5996 33.192V10.9445C41.5996 9.95327 42.387 9.15039 43.3591 9.15039H52.7198C60.8841 9.15039 65.9515 13.0258 65.9515 21.53C65.9515 31.2544 60.6377 34.9862 52.5087 34.9862H43.3591C42.387 34.9862 41.5996 34.1833 41.5996 33.192ZM49.9046 28.0608C49.9046 28.5542 50.3005 28.9578 50.7844 28.9578H51.6641C55.5351 28.9578 57.6465 26.8766 57.6465 21.9965C57.6465 16.6141 55.9222 15.1787 51.4882 15.1787H50.7844C50.3005 15.1787 49.9046 15.5824 49.9046 16.0758V28.0608Z" fill="white"/>
<path d="M78.3735 15.6445C84.8838 15.6445 88.8955 19.5558 88.8955 25.4047C88.8955 32.2943 84.3207 35.5237 78.4087 35.5237C72.4967 35.5237 67.9219 32.2225 67.9219 25.7994C67.9219 19.3764 72.1447 15.6445 78.3735 15.6445ZM75.2415 25.4047C75.2415 28.9571 76.5436 30.5001 78.4087 30.5001C80.3794 30.5001 81.5758 28.9571 81.5758 25.4047C81.5758 22.6417 80.3794 20.5605 78.4791 20.6682C75.9805 20.6682 75.2415 23.2876 75.2415 25.4047Z" fill="white"/>
<path d="M127.711 27.7738L130.733 16.8385C130.838 16.4527 131.186 16.1836 131.582 16.1836H136.719C137.322 16.1836 137.749 16.7891 137.551 17.3722L132.039 33.7304C130.104 39.5435 129.329 41.3735 122.819 41.3735C121.939 41.3735 121.064 41.3107 120.404 41.2703C119.942 41.2389 119.582 40.8487 119.582 40.3733V36.9464C119.582 36.4396 119.995 36.0314 120.492 36.0493C120.695 36.0583 120.897 36.0628 121.095 36.0628C123.382 36.0628 123.91 35.381 123.171 33.2998L117.545 17.3857C117.338 16.8026 117.765 16.1836 118.372 16.1836H123.809C124.2 16.1836 124.548 16.4482 124.653 16.834L127.711 27.7738Z" fill="white"/>
<path d="M118.944 36.0088H122.903V41.3912H118.944C118.46 41.3912 118.064 40.9876 118.064 40.4942V36.9059C118.064 36.4125 118.46 36.0088 118.944 36.0088Z" fill="white"/>
<path d="M116.345 17.0807V19.5925C116.345 20.0859 115.949 20.4896 115.465 20.4896H113.283V33.1922C113.283 34.1834 112.496 34.9863 111.523 34.9863H107.723C106.751 34.9863 105.963 34.1834 105.963 33.1922V20.4896H104.415C103.931 20.4896 103.535 20.0859 103.535 19.5925V17.0807C103.535 16.5873 103.931 16.1836 104.415 16.1836H105.998C105.998 9.54524 108.532 8.46875 113.213 8.46875H115.465C115.949 8.46875 116.345 8.87243 116.345 9.36583V12.2813C116.345 12.7702 115.962 13.1649 115.482 13.1784C113.749 13.2233 113.129 13.5686 113.283 16.1881H115.465C115.949 16.1881 116.345 16.5918 116.345 17.0852V17.0807Z" fill="white"/>
<path d="M115.464 13.1777H111.505V7.79528L115.464 7.79528C115.948 7.79528 116.344 8.19896 116.344 8.69235V12.2807C116.344 12.7741 115.948 13.1777 115.464 13.1777Z" fill="white"/>
<path d="M105.998 16.1834C105.998 16.1834 105.606 7.67461 111.505 7.79123C117.404 7.90785 114.435 11.0297 114.435 11.0297L108.043 16.4032L105.998 16.1834Z" fill="white"/>
<path d="M103.288 17.0807V19.5925C103.288 20.0859 102.892 20.4896 102.408 20.4896H100.226V33.1922C100.226 34.1834 99.4389 34.9863 98.4668 34.9863H94.6662C93.6941 34.9863 92.9067 34.1834 92.9067 33.1922V20.4896H91.3583C90.8744 20.4896 90.4785 20.0859 90.4785 19.5925V17.0807C90.4785 16.5873 90.8744 16.1836 91.3583 16.1836H92.9419C92.9419 9.54524 95.4756 8.46875 100.156 8.46875H102.408C102.892 8.46875 103.288 8.87243 103.288 9.36583V12.2813C103.288 12.7702 102.905 13.1649 102.426 13.1784C100.693 13.2233 100.072 13.5686 100.226 16.1881H102.408C102.892 16.1881 103.288 16.5918 103.288 17.0852V17.0807Z" fill="white"/>
<path d="M102.407 13.1777H98.4484V7.79528L102.407 7.79528C102.891 7.79528 103.287 8.19896 103.287 8.69235V12.2807C103.287 12.7741 102.891 13.1777 102.407 13.1777Z" fill="white"/>
<path d="M92.9409 16.1834C92.9409 16.1834 92.5494 7.67461 98.4483 7.79123C104.347 7.90785 101.378 11.0297 101.378 11.0297L94.9864 16.4032L92.9409 16.1834Z" fill="white"/>
</g>
<g style="mix-blend-mode:luminosity">
<path fill-rule="evenodd" clip-rule="evenodd" d="M35.2009 4C35.2009 1.79086 33.4101 0 31.2009 0H17.6009C15.3918 0 13.6009 1.79086 13.6009 4L35.2009 4ZM16.9489 35.1471C17.1611 35.1819 17.3789 35.2 17.6009 35.2C19.8101 35.2 21.6009 33.4091 21.6009 31.2V21.5999H31.2009C33.4101 21.5999 35.2009 19.809 35.2009 17.5999C35.2009 15.3907 33.4101 13.5999 31.2009 13.5999L21.6009 13.5999V8L31.2009 8C33.4101 8 35.2009 6.20914 35.2009 4L13.6009 4.00558V13.5986H10.8C4.83532 13.5986 0 18.434 0 24.3986C0 30.3633 4.83533 35.1986 10.8 35.1986H16.2C16.4541 35.1986 16.7041 35.1811 16.9489 35.1471ZM13.6009 27.1988V21.5988H10.7997C9.25333 21.5988 7.99973 22.8524 7.99973 24.3988C7.99973 25.9452 9.25333 27.1988 10.7997 27.1988H13.6009Z" fill="white"/>
<g style="mix-blend-mode:multiply">
<rect x="13.6016" width="8" height="35.2" rx="4" fill="url(#paint0_linear_608_27017)"/>
</g>
<g style="mix-blend-mode:multiply">
<rect x="35.2012" width="8" height="21.6" rx="4" transform="rotate(90 35.2012 0)" fill="#08E8C2"/>
</g>
<g style="mix-blend-mode:multiply">
<rect x="35.2012" y="13.5996" width="8" height="21.6" rx="4" transform="rotate(90 35.2012 13.5996)" fill="#12D0DF"/>
</g>
<g style="mix-blend-mode:multiply">
<path fill-rule="evenodd" clip-rule="evenodd" d="M17.6033 13.5986H10.8039C4.83923 13.5986 0.00390625 18.434 0.00390625 24.3986C0.00390625 30.3633 4.83924 35.1986 10.8039 35.1986H16.2039C16.4581 35.1986 16.7082 35.1811 16.953 35.1471C17.1642 35.1815 17.3809 35.1994 17.6018 35.1994C19.8109 35.1994 21.6018 33.4086 21.6018 31.1994C21.6018 28.9908 19.8117 27.2002 17.6033 27.1994V27.1988H10.8036C9.25724 27.1988 8.00363 25.9452 8.00363 24.3988C8.00363 22.8524 9.25724 21.5988 10.8036 21.5988H17.5202C17.5473 21.5993 17.5745 21.5996 17.6018 21.5996C19.8109 21.5996 21.6018 19.8087 21.6018 17.5996C21.6018 15.3909 19.8117 13.6004 17.6033 13.5996V13.5986Z" fill="#057FEF"/>
</g>
</g>
</g>
<defs>
<linearGradient id="paint0_linear_608_27017" x1="17.6016" y1="0" x2="17.6016" y2="35.2" gradientUnits="userSpaceOnUse">
<stop stop-color="#08E8C2"/>
<stop offset="1" stop-color="#057FEF"/>
</linearGradient>
<clipPath id="clip0_608_27017">
<rect width="96" height="33.6" fill="white" transform="translate(41.5996 7.79102)"/>
</clipPath>
</defs>
</svg>
