<svg width="26" height="24" viewBox="0 0 26 24" fill="none" xmlns="http://www.w3.org/2000/svg">
<path d="M13.2139 2.5C12.9105 2.5 12.6324 2.664 12.4996 2.923C11.4745 4.921 9.70765 8.363 9.70765 8.363C9.70765 8.363 5.69354 8.887 3.3641 9.192C2.94056 9.246 2.67822 9.588 2.67822 9.94C2.67822 10.129 2.75408 10.322 2.92265 10.475C4.61785 12.013 7.5394 14.666 7.5394 14.666C7.5394 14.666 6.82613 18.433 6.41208 20.618C6.32358 21.079 6.70287 21.5 7.19278 21.5C7.32131 21.5 7.4509 21.471 7.56785 21.411C9.64128 20.363 13.2139 18.56 13.2139 18.56C13.2139 18.56 16.7866 20.363 18.86 21.411C18.977 21.471 19.1055 21.5 19.234 21.5C19.7261 21.5 20.1032 21.08 20.0158 20.618C19.6028 18.433 18.8895 14.666 18.8895 14.666C18.8895 14.666 21.81 12.013 23.5063 10.475C23.6738 10.322 23.7497 10.129 23.7497 9.939C23.7497 9.588 23.4894 9.247 23.0648 9.192C20.7354 8.887 16.7202 8.363 16.7202 8.363C16.7202 8.363 14.9544 4.921 13.9283 2.923C13.7955 2.664 13.5184 2.5 13.2139 2.5Z" fill="#08E8C2"/>
</svg>
