<svg width="20" height="19" viewBox="0 0 20 19" fill="none" xmlns="http://www.w3.org/2000/svg">
<mask id="path-1-inside-1_974_75104" fill="white">
<path fill-rule="evenodd" clip-rule="evenodd" d="M3 0C1.34315 0 0 1.34315 0 3V13C0 14.6569 1.34315 16 3 16H7.6906L9.13398 18.5C9.51888 19.1667 10.4811 19.1667 10.866 18.5L12.3094 16H17C18.6569 16 20 14.6569 20 13V3C20 1.34315 18.6569 0 17 0H3Z"/>
</mask>
<path fill-rule="evenodd" clip-rule="evenodd" d="M3 0C1.34315 0 0 1.34315 0 3V13C0 14.6569 1.34315 16 3 16H7.6906L9.13398 18.5C9.51888 19.1667 10.4811 19.1667 10.866 18.5L12.3094 16H17C18.6569 16 20 14.6569 20 13V3C20 1.34315 18.6569 0 17 0H3Z" fill="white"/>
<path d="M7.6906 16L9.42265 15L8.8453 14H7.6906V16ZM9.13398 18.5L10.866 17.5L10.866 17.5L9.13398 18.5ZM10.866 18.5L12.5981 19.5L10.866 18.5ZM12.3094 16V14H11.1547L10.5774 15L12.3094 16ZM2 3C2 2.44772 2.44772 2 3 2V-2C0.238577 -2 -2 0.238576 -2 3H2ZM2 13V3H-2V13H2ZM3 14C2.44772 14 2 13.5523 2 13H-2C-2 15.7614 0.238576 18 3 18V14ZM7.6906 14H3V18H7.6906V14ZM10.866 17.5L9.42265 15L5.95855 17L7.40192 19.5L10.866 17.5ZM9.13398 17.5C9.51887 16.8333 10.4811 16.8333 10.866 17.5L7.40192 19.5C8.55663 21.5 11.4434 21.5 12.5981 19.5L9.13398 17.5ZM10.5774 15L9.13398 17.5L12.5981 19.5L14.0415 17L10.5774 15ZM17 14H12.3094V18H17V14ZM18 13C18 13.5523 17.5523 14 17 14V18C19.7614 18 22 15.7614 22 13H18ZM18 3V13H22V3H18ZM17 2C17.5523 2 18 2.44772 18 3H22C22 0.238577 19.7614 -2 17 -2V2ZM3 2H17V-2H3V2Z" fill="#999999" mask="url(#path-1-inside-1_974_75104)"/>
<path d="M10 9C10.5523 9 11 8.55228 11 8C11 7.44772 10.5523 7 10 7C9.44772 7 9 7.44772 9 8C9 8.55228 9.44772 9 10 9Z" fill="#999999"/>
<path d="M14 9C14.5523 9 15 8.55228 15 8C15 7.44772 14.5523 7 14 7C13.4477 7 13 7.44772 13 8C13 8.55228 13.4477 9 14 9Z" fill="#999999"/>
<path d="M6 9C6.55228 9 7 8.55228 7 8C7 7.44772 6.55228 7 6 7C5.44772 7 5 7.44772 5 8C5 8.55228 5.44772 9 6 9Z" fill="#999999"/>
</svg>
