<svg width="16" height="16" viewBox="0 0 16 16" fill="none" xmlns="http://www.w3.org/2000/svg">
<path fill-rule="evenodd" clip-rule="evenodd" d="M6.5 1.18186C3.56285 1.18186 1.18182 3.56297 1.18182 6.50022C1.18182 9.43747 3.56285 11.8186 6.5 11.8186C9.43715 11.8186 11.8182 9.43747 11.8182 6.50022C11.8182 3.56297 9.43715 1.18186 6.5 1.18186ZM0 6.50022C0 2.91025 2.91015 0 6.5 0C10.0899 0 13 2.91025 13 6.50022C13 10.0902 10.0899 13.0004 6.5 13.0004C2.91015 13.0004 0 10.0902 0 6.50022Z" fill="white"/>
<path fill-rule="evenodd" clip-rule="evenodd" d="M10.2197 10.2197C10.5126 9.92677 10.9874 9.92677 11.2803 10.2197L15.7803 14.7198C16.0732 15.0127 16.0732 15.4876 15.7803 15.7805C15.4874 16.0734 15.0126 16.0734 14.7197 15.7805L10.2197 11.2804C9.92678 10.9875 9.92678 10.5126 10.2197 10.2197Z" fill="white"/>
</svg>
