<svg width="10" height="11" viewBox="0 0 10 11" fill="none" xmlns="http://www.w3.org/2000/svg">
<path d="M5.00025 0C7.75944 0 10 2.2438 10 5.00697C10 7.77065 7.75944 10.0144 5.00025 10.0144C2.24056 10.0144 0 7.77065 0 5.00697C0 2.2438 2.24056 0 5.00025 0ZM5.00025 0.751271C2.65466 0.751271 0.750188 2.658 0.750188 5.00697C0.750188 7.35594 2.65466 9.26317 5.00025 9.26317C7.34584 9.26317 9.24981 7.35594 9.24981 5.00697C9.24981 2.658 7.34584 0.751271 5.00025 0.751271Z" fill="#666666"/>
<path d="M5.001 4.69536C4.794 4.69536 4.626 4.86361 4.626 5.07091V6.82343C4.626 7.03073 4.794 7.19897 5.001 7.19897C5.208 7.19897 5.376 7.03073 5.376 6.82343V5.07091C5.376 4.86361 5.208 4.69536 5.001 4.69536ZM5 3.1932C5.276 3.1932 5.5 3.41752 5.5 3.69392C5.5 3.97032 5.276 4.19464 5 4.19464C4.724 4.19464 4.5 3.97032 4.5 3.69392C4.5 3.41752 4.724 3.1932 5 3.1932Z" fill="#666666"/>
</svg>
